<svg width="85" height="85" viewBox="0 0 85 85" fill="none" xmlns="http://www.w3.org/2000/svg">
<path d="M0.880554 54.068H69.3308V59.4562H0.880554V54.068Z" fill="#0C0A52"/>
<path d="M51.7464 68.6175C51.7464 65.0263 35.9351 65.3862 35.9351 68.6653V80.819C35.777 82.4924 36.9923 84.134 38.6723 84.134L81.0236 84.1367C81.4236 84.1372 81.8197 84.0588 82.1893 83.906C82.559 83.7533 82.8948 83.5291 83.1777 83.2463C83.4606 82.9636 83.6849 82.6278 83.8379 82.2582C83.9908 81.8887 84.0693 81.4926 84.069 81.0926L84.073 42.6115C84.073 18.4317 63.3184 -1.00279 38.6816 1.23776C37.877 1.31123 37.1344 1.70105 36.6169 2.3216C36.0995 2.94215 35.8495 3.7427 35.9218 4.54745V17.6428H51.7464V8.36714C66.8724 12.4232 77.9769 26.2331 77.9822 42.5996C77.9277 58.9554 66.8791 72.829 51.7464 76.8639V68.6149V68.6175Z" fill="#0C0A52"/>
<path d="M57.0788 42.7045C57.0785 41.8091 57.2546 40.9224 57.597 40.095C57.9395 39.2677 58.4416 38.5159 59.0747 37.8827C59.7078 37.2495 60.4595 36.7472 61.2867 36.4046C62.114 36.062 63.0007 35.8857 63.8961 35.8859C65.7048 35.8866 67.4393 36.6051 68.7187 37.8835C69.9981 39.1619 70.7179 40.8958 70.72 42.7045C70.7162 44.5129 69.9959 46.2461 68.7169 47.5245C67.4379 48.803 65.7045 49.5226 63.8961 49.5258C62.0881 49.5233 60.3549 48.8037 59.0769 47.5249C57.7988 46.2461 57.0802 44.5125 57.0788 42.7045ZM48.3597 35.6469H25.5146L0.826111 39.4254V49.5165L18.7837 49.5191C18.2165 48.616 17.9138 47.572 17.9098 46.5056C17.9122 44.9764 18.5209 43.5105 19.6024 42.4292C20.6839 41.348 22.1499 40.7397 23.6792 40.7376H36.1914L46.3317 38.6192L46.8961 41.3113L36.4756 43.4868H23.6792C23.2831 43.4842 22.8903 43.5596 22.5234 43.7087C22.1565 43.8579 21.8225 44.0779 21.5406 44.3561C20.9712 44.918 20.6483 45.6831 20.6431 46.483C20.6378 47.283 20.9505 48.0522 21.5124 48.6216C22.0743 49.191 22.8394 49.5138 23.6393 49.5191L48.4088 49.5231C52.2418 49.4926 55.3151 46.4073 55.3151 42.5943C55.3153 41.6811 55.1354 40.7768 54.7857 39.9333C54.4361 39.0897 53.9235 38.3233 53.2773 37.678C52.6312 37.0327 51.8642 36.5212 51.0201 36.1727C50.176 35.8241 49.2729 35.6455 48.3597 35.6469Z" fill="#0C0A52"/>
</svg>
