<svg width="40" height="40" viewBox="0 0 40 40" fill="none" xmlns="http://www.w3.org/2000/svg">
<path d="M3.33331 20.0002C3.33331 27.8568 3.33331 31.7853 5.7741 34.226C8.21486 36.6668 12.1432 36.6668 20 36.6668C27.8566 36.6668 31.7851 36.6668 34.2258 34.226C36.6666 31.7853 36.6666 27.8568 36.6666 20.0002V17.5002M22.5 3.3335H20C12.1432 3.3335 8.21486 3.3335 5.7741 5.77428C4.1512 7.39718 3.60738 9.67775 3.42515 13.3335" stroke="#1C274C" stroke-width="3.75" stroke-linecap="round"/>
<path d="M27.7533 5.7586L28.8348 4.67723C30.6265 2.88558 33.5313 2.88558 35.323 4.67723C37.1145 6.4689 37.1145 9.37375 35.323 11.1654L34.2415 12.2467M27.7533 5.7586C27.7533 5.7586 27.8885 8.05648 29.9161 10.084C31.9436 12.1116 34.2415 12.2467 34.2415 12.2467M27.7533 5.7586L17.812 15.7001C17.1386 16.3734 16.802 16.71 16.5124 17.0813C16.1708 17.5192 15.878 17.993 15.639 18.4943C15.4365 18.9193 15.2859 19.371 14.9848 20.2745L14.0207 23.1668M34.2415 12.2467L29.2708 17.2175M14.0207 23.1668L13.3968 25.0383C13.2486 25.483 13.3643 25.973 13.6957 26.3045C14.0271 26.6358 14.5172 26.7515 14.9618 26.6033L16.8333 25.9795M14.0207 23.1668L16.8333 25.9795M24.3002 22.1882C23.6268 22.8615 23.2901 23.1982 22.9188 23.4878C22.481 23.8293 22.0071 24.1222 21.5058 24.3612C21.0808 24.5637 20.6291 24.7142 19.7256 25.0153L16.8333 25.9795" stroke="#1C274C" stroke-width="3.75" stroke-linecap="round"/>
</svg>
