<svg xmlns="http://www.w3.org/2000/svg" xmlns:xlink="http://www.w3.org/1999/xlink" xml:space="preserve" version="1.1" style="shape-rendering:geometricPrecision;text-rendering:geometricPrecision;image-rendering:optimizeQuality;" viewBox="0 0 60000 75000" x="0px" y="0px" fill-rule="evenodd" clip-rule="evenodd"><defs><style type="text/css">
   
    .fil0 {fill:black;fill-rule:nonzero}
   
  </style></defs><g><path class="fil0" d="M31369 41989c-22,87 -110,140 -196,118 -87,-22 -140,-110 -118,-196 280,-1114 653,-1947 991,-2704 257,-574 493,-1103 652,-1682 -771,-531 -1694,-965 -2881,-1139 -88,-13 -150,-95 -137,-184 13,-88 95,-150 184,-137 1198,175 2134,600 2916,1122 181,-860 179,-1857 -176,-3266 -287,-1137 -134,-2043 227,-2850 -544,-254 -1158,-451 -1866,-554 -88,-13 -150,-95 -137,-184 13,-88 95,-150 184,-137 747,109 1392,315 1961,582 300,-577 697,-1109 1101,-1650 638,-856 1292,-1733 1571,-2847 -895,-744 -1991,-1408 -3532,-1633 -89,-13 -150,-95 -137,-184 13,-89 95,-150 184,-137 1545,226 2654,867 3559,1596 113,-672 87,-1431 -152,-2317 -23,-86 28,-175 115,-198 86,-23 175,28 199,115 277,1027 286,1888 130,2644 354,306 679,620 989,921 606,588 1155,1120 1771,1415 557,-977 858,-2121 411,-3686 -24,-86 26,-176 112,-201 86,-24 176,26 201,112 476,1666 164,2872 -417,3899 438,146 917,166 1475,2 870,-336 1622,-369 2313,-214 195,-677 215,-1452 -69,-2389 -26,-86 22,-176 108,-202 86,-26 176,22 202,108 307,1013 287,1845 80,2569 904,284 1715,875 2571,1500 121,88 244,177 367,267 471,-814 694,-1765 286,-3030 -27,-85 19,-176 105,-204 85,-27 176,19 204,105 453,1404 198,2440 -325,3320 848,596 1771,1158 2889,1430 746,-898 1264,-1929 742,-3440 -29,-84 16,-177 100,-205 84,-29 177,16 205,100 553,1597 60,2686 -688,3621 371,67 764,101 1182,94 89,-1 163,70 164,159 1,89 -70,163 -159,164 -510,9 -984,-40 -1426,-132 -203,231 -416,455 -628,677 -381,398 -755,790 -1040,1212 280,54 573,88 883,96 89,2 160,76 158,166 -2,89 -76,160 -166,158 -373,-10 -724,-54 -1055,-125 -310,568 -434,1198 -185,1967 687,2125 125,3106 -581,4337 -332,579 -697,1216 -969,2058 -27,85 -119,132 -204,105 -85,-27 -132,-119 -105,-204 283,-878 656,-1529 995,-2120 667,-1163 1197,-2089 555,-4077 -275,-851 -156,-1537 162,-2147 -1092,-302 -1976,-885 -2811,-1440 -548,718 -922,1490 -743,2484 800,460 1664,911 2747,1014 89,9 154,87 146,176 -9,89 -87,154 -176,146 -1027,-98 -1852,-482 -2607,-902 337,1146 351,1978 190,2693 84,24 169,46 256,66 87,20 142,107 122,194 -20,87 -107,142 -194,122 -91,-21 -179,-43 -267,-68 -165,538 -425,1023 -708,1551 -332,619 -696,1300 -969,2206 -26,86 -116,135 -202,109 -86,-26 -135,-116 -109,-202 281,-934 655,-1632 995,-2266 273,-509 523,-977 680,-1496 -463,-157 -886,-357 -1296,-550 -616,-291 -1202,-567 -1842,-648 -89,949 -453,1674 -867,2497l-19 37c263,-16 516,-3 762,35 623,95 1193,344 1748,672 77,45 103,145 57,222 -45,77 -145,103 -222,57 -792,-468 -1588,-751 -2515,-645 -276,562 -559,1190 -782,1977 -24,86 -114,136 -200,112 -86,-24 -136,-114 -112,-200 202,-715 451,-1299 702,-1822 -198,45 -403,107 -616,190 -6,2 -12,5 -18,6 -1083,319 -1877,39 -2623,-507 -265,577 -533,1222 -745,2019 -23,86 -111,138 -198,115 -86,-23 -138,-111 -115,-198 228,-855 515,-1534 796,-2141 -326,-268 -648,-580 -987,-909 -451,-438 -934,-906 -1498,-1330 -163,549 -392,1060 -638,1611 -332,743 -698,1561 -972,2651l1 -1zm3398 -23709c326,-1107 728,-2680 1033,-4203 246,-1229 428,-2415 451,-3278 22,-812 49,-1653 331,-2308 320,-744 916,-1223 2060,-1137 917,69 1433,500 1726,1125 263,563 318,1264 332,1984 0,5 0,10 0,16 -6,211 -10,417 -15,630 -45,1940 -105,4530 -615,6362 4272,74 8133,1836 10944,4647 2873,2873 4650,6842 4650,11225 0,4384 -1777,8352 -4650,11225 -2873,2873 -6842,4650 -11225,4650 -1502,0 -2956,-209 -4334,-599 -277,1413 -681,3208 -1095,5051 -266,1182 -536,2384 -796,3593 -46,216 -258,354 -473,308 -216,-46 -354,-258 -308,-473 238,-1106 521,-2365 799,-3602 421,-1870 830,-3691 1107,-5114 -2332,-791 -4421,-2109 -6125,-3813 -2873,-2873 -4650,-6842 -4650,-11225 0,-4384 1777,-8352 4650,-11225 1093,-1093 2344,-2027 3716,-2765l-524 -13623 0 0 0 -6c-13,-620 -62,-1215 -291,-1641 -204,-379 -583,-641 -1277,-686 -871,-57 -1309,228 -1529,674 -253,513 -281,1266 -304,1995 -43,1376 -45,2919 -47,4461 -2,2010 -5,4019 -96,5644 -56,1008 -147,1879 -294,2531 -169,753 -436,1255 -837,1413 -81,33 -173,41 -263,14 -981,-284 -1411,-4950 -1840,-9616 -206,-2242 -413,-4484 -659,-6212 -227,-873 -775,-1384 -1367,-1559 -247,-73 -501,-88 -742,-48 -235,40 -457,133 -645,279 -403,313 -654,879 -556,1687 3,16 5,32 6,48 116,1751 296,3483 472,5184 361,3487 709,6843 476,9931 360,-78 749,-102 1190,-69 138,10 241,130 230,268 -10,138 -130,241 -268,230 -580,-43 -1052,22 -1483,189 -437,169 -841,444 -1279,818 -105,90 -262,77 -352,-27 -90,-105 -77,-262 27,-352 389,-332 758,-594 1149,-784 -2365,-2614 -2948,-5422 -3530,-8230 -204,-983 -408,-1966 -687,-2924 -167,-575 -341,-1159 -636,-1589 -264,-384 -645,-657 -1258,-703 -147,-11 -292,-3 -430,25 -322,65 -627,238 -863,533 -251,314 -427,768 -472,1379 -32,438 1,949 120,1539 190,948 622,2543 1133,4431 1517,5606 3729,13778 2589,16328 -51,115 -116,227 -190,333 -179,253 -417,459 -686,572 -297,125 -625,141 -952,-5 -75,-33 -150,-77 -226,-130 -714,-505 -1278,-1494 -1854,-2502 -221,-387 -444,-778 -665,-1124 -595,-932 -1902,-2013 -3302,-2750 -1195,-629 -2437,-998 -3312,-785 -225,55 -396,142 -520,254 -153,137 -243,320 -281,528 -43,234 -23,500 44,774 125,511 407,1029 754,1416 319,356 708,749 1103,1149 726,735 1473,1490 1953,2191 423,616 853,1293 1297,2075 441,777 894,1658 1364,2687 600,1314 2605,3860 4790,5867 42,37 84,75 125,114 85,77 170,153 255,228 1662,1464 3358,2547 4508,2438 219,-21 414,140 434,359 21,219 -140,414 -359,434 -941,89 -2105,-408 -3315,-1226 572,1272 918,2783 1072,4346 316,3215 -179,6679 -1193,8699 -98,197 -338,276 -534,178 -197,-98 -276,-338 -178,-534 952,-1897 1414,-5188 1111,-8264 -240,-2441 -960,-4727 -2296,-6028 -2320,-2095 -4493,-4855 -5144,-6280 -458,-1003 -901,-1863 -1333,-2625 -429,-756 -848,-1415 -1262,-2019 -441,-643 -1162,-1372 -1863,-2082 -394,-399 -782,-791 -1128,-1177 -430,-480 -780,-1124 -935,-1760 -92,-377 -117,-756 -53,-1105 69,-375 238,-713 534,-978 220,-197 504,-347 864,-435 1082,-264 2522,143 3872,854 1511,796 2937,1986 3602,3028 242,380 465,770 687,1158 532,931 1054,1845 1620,2245 29,21 60,38 92,52 107,48 217,41 318,-1 129,-54 249,-162 345,-297 42,-60 80,-126 112,-198 1023,-2289 -1145,-10300 -2633,-15796 -510,-1883 -940,-3474 -1143,-4481 -134,-669 -172,-1251 -135,-1752 58,-786 299,-1387 644,-1820 360,-451 831,-717 1332,-818 214,-43 430,-56 642,-40 901,67 1467,476 1861,1050 363,528 557,1178 743,1817 290,998 496,1991 702,2984 510,2460 1021,4920 2786,7195 113,-2788 -199,-5804 -523,-8925 -178,-1715 -358,-3461 -475,-5215l0 -1c-137,-1125 248,-1941 860,-2415 294,-228 638,-374 1001,-435 358,-60 734,-38 1098,70 844,250 1619,955 1921,2148 4,17 7,35 9,52 245,1718 454,3991 663,6265 369,4003 737,8006 1147,8788 76,-143 150,-383 222,-702 135,-603 221,-1431 275,-2400 91,-1625 93,-3613 96,-5600 2,-1556 4,-3112 47,-4486 26,-815 57,-1660 385,-2323 361,-731 1027,-1201 2295,-1118 1021,67 1599,490 1930,1105 305,567 369,1272 385,1997l0 0 510 13257c551,-258 1120,-486 1704,-680zm4501 -803c-5,-49 -1,-100 13,-151 503,-1747 563,-4315 607,-6232 5,-223 10,-438 15,-627 -12,-624 -56,-1221 -257,-1650 -172,-368 -489,-623 -1064,-666 -717,-54 -1081,223 -1266,656 -224,522 -248,1279 -268,2011 -25,926 -212,2156 -464,3415 -266,1327 -606,2698 -908,3774 1151,-308 2353,-490 3591,-530zm-20644 17715c257,0 491,104 659,273 169,169 273,402 273,659 0,257 -104,491 -273,659 -169,169 -402,273 -659,273 -257,0 -491,-104 -659,-273 -169,-169 -273,-402 -273,-659 0,-257 104,-491 273,-659 169,-169 402,-273 659,-273zm306 627c-78,-78 -186,-127 -306,-127 -119,0 -228,48 -306,127 -78,78 -127,186 -127,306 0,119 48,228 127,306 78,78 186,127 306,127 119,0 228,-48 306,-127 78,-78 127,-186 127,-306 0,-119 -48,-228 -127,-306zm6715 12242c-119,0 -228,48 -306,127 -78,78 -127,186 -127,306 0,119 48,228 127,306 78,78 186,127 306,127 119,0 228,-48 306,-127 78,-78 127,-186 127,-306 0,-119 -48,-228 -127,-306 -78,-78 -186,-127 -306,-127zm-659 -227c169,-169 402,-273 659,-273 257,0 491,104 659,273 169,169 273,402 273,659 0,257 -104,491 -273,659 -169,169 -402,273 -659,273 -257,0 -491,-104 -659,-273 -169,-169 -273,-402 -273,-659 0,-257 104,-491 273,-659zm-2503 9663c84,-84 127,-195 127,-306 0,-111 -42,-221 -127,-306 -84,-84 -195,-127 -306,-127 -111,0 -221,42 -306,127 -84,84 -127,195 -127,306 0,111 42,221 127,306 84,84 195,127 306,127 111,0 221,-42 306,-127zm354 354c-182,182 -421,273 -659,273 -239,0 -477,-91 -659,-273 -182,-182 -273,-421 -273,-659 0,-239 91,-477 273,-659 182,-182 421,-273 659,-273 239,0 477,91 659,273 182,182 273,421 273,659 0,239 -91,477 -273,659zm5695 -5490c204,-156 452,-215 688,-184 237,31 462,153 618,357 156,204 215,452 184,688 -31,237 -153,462 -357,618 -204,156 -452,215 -688,184 -237,-31 -462,-153 -618,-357 -156,-204 -215,-452 -184,-688 31,-237 153,-462 357,-618zm624 310c-110,-15 -226,13 -321,86 -95,73 -151,177 -166,286 -15,110 13,226 86,321 73,95 177,151 286,166 110,15 226,-13 321,-86 95,-73 151,-177 166,-286 15,-110 -13,-226 -86,-321 -73,-95 -177,-151 -286,-166zm-5353 2896c98,98 98,256 0,354 -98,98 -256,98 -354,0 -351,-351 -811,-526 -1271,-526 -460,0 -920,175 -1271,526 -98,98 -256,98 -354,0 -98,-98 -98,-256 0,-354 449,-449 1036,-673 1624,-673 588,0 1176,224 1624,673zm6723 -3560c-84,-109 -63,-266 47,-350 109,-84 266,-63 350,47 385,503 531,1115 454,1697 -77,583 -377,1137 -880,1523 -109,84 -266,63 -350,-47 -84,-109 -63,-266 47,-350 394,-302 628,-735 689,-1191 60,-456 -54,-936 -356,-1330zm19925 -29323c-2728,-2728 -6497,-4415 -10660,-4415 -4163,0 -7932,1687 -10660,4415 -2728,2728 -4415,6497 -4415,10660 0,4163 1687,7932 4415,10660 2728,2728 6497,4415 10660,4415 4163,0 7932,-1687 10660,-4415 2728,-2728 4415,-6497 4415,-10660 0,-4163 -1687,-7932 -4415,-10660zm-11287 17432c38,-76 76,-151 112,-224 394,-784 741,-1475 828,-2376 -362,-5 -745,58 -1162,220 -6,2 -12,4 -18,6 -868,255 -1551,127 -2171,-216 -145,780 -455,1434 -799,2161 -28,60 -56,119 -85,180 693,515 1420,783 2386,500 317,-123 619,-204 908,-251l1 0zm-3556 -455c18,-38 35,-75 53,-112 350,-740 662,-1400 790,-2208 -473,-319 -919,-753 -1399,-1219 -153,-149 -311,-302 -477,-458 -65,-61 -68,-164 -7,-229 61,-65 164,-68 229,-7 163,153 324,309 481,462 419,407 811,788 1218,1081 54,-661 -16,-1428 -277,-2407 -90,-337 -137,-652 -148,-949 -147,-138 -294,-281 -445,-427 -697,-677 -1469,-1425 -2499,-1970 -330,752 -468,1590 -207,2625 391,1550 371,2620 151,3547 621,454 1145,962 1633,1435 311,301 606,588 904,836l-1 0zm8044 -1239c147,-682 124,-1476 -206,-2570 -149,-495 -178,-614 -147,-1144 45,-758 388,-1387 841,-1978 -962,-636 -1879,-1182 -2999,-1106 -194,242 -377,485 -538,737 -166,246 -406,-10 -309,-124 117,-187 247,-369 383,-548 -189,41 -384,99 -587,177 -6,2 -11,4 -17,6 -1196,352 -2041,-26 -2855,-686 -467,684 -816,1408 -821,2289 89,82 177,161 265,237 510,325 149,536 -10,413 -13,-11 -27,-22 -40,-32 -63,-51 -125,-104 -187,-158 22,175 57,357 108,546 297,1113 358,1965 274,2694 588,348 1224,491 2023,257 470,-181 895,-251 1295,-245l0 0c8,-345 -21,-721 -96,-1145 -12,-187 284,-176 328,-12 76,435 105,824 96,1180 687,82 1308,375 1961,684 394,186 801,378 1239,529l0 -1zm-7571 -5245c70,-839 428,-1539 887,-2202 -252,-222 -505,-468 -768,-723 -78,-76 -156,-151 -239,-231 -65,-62 -67,-164 -4,-229 62,-65 164,-67 229,-4 79,76 160,155 240,233 251,244 492,478 733,689 476,-644 1009,-1246 1440,-1923 -638,-318 -1204,-866 -1824,-1469 -269,-261 -549,-533 -850,-799 -311,1087 -957,1955 -1589,2802 -392,526 -778,1043 -1067,1602 1070,563 1865,1335 2585,2032 77,75 153,149 229,222l0 0zm11310 882c306,-477 723,-914 1148,-1357 170,-177 341,-356 505,-539 -1090,-294 -1993,-847 -2825,-1432 -311,459 -685,879 -1055,1293 -188,211 -375,420 -550,632 825,549 1702,1123 2777,1403l0 0zm-3049 -1584c533,-646 1144,-1235 1609,-1934 -130,-93 -259,-187 -386,-280 -831,-605 -1616,-1178 -2485,-1447 -355,944 -1026,1710 -1664,2473 1085,17 1983,565 2926,1188zm-3364 -1167c660,-807 1401,-1589 1780,-2578 -633,-135 -1316,-101 -2095,201 -6,2 -11,4 -17,6 -674,198 -1236,165 -1745,-20 -289,458 -625,884 -957,1304 -184,233 -366,464 -538,698 749,606 1518,951 2571,643 354,-136 686,-218 1001,-254l0 0z"/></g><text x="0" y="60015" fill="#000000" font-size="5px" font-weight="bold" font-family="'Helvetica Neue', Helvetica, Arial-Unicode, Arial, Sans-serif">Created by Olena Panasovska</text><text x="0" y="60020" fill="#000000" font-size="5px" font-weight="bold" font-family="'Helvetica Neue', Helvetica, Arial-Unicode, Arial, Sans-serif">from the Noun Project</text></svg>