<svg width="43" height="43" viewBox="0 0 43 43" fill="none" xmlns="http://www.w3.org/2000/svg">
<g clip-path="url(#clip0_89_626)">
<path d="M31.0943 36.0681L35.7813 35.8065L36.0554 31.1213L27.1365 22.2024L22.179 27.151L31.0943 36.0681Z" fill="#23467B"/>
<path d="M18.3395 2.8791L15.557 5.66156L11.945 2.04956C11.3053 1.3592 10.5329 0.804988 9.67395 0.420075C8.81505 0.0351624 7.88733 -0.17254 6.94629 -0.190605C6.00526 -0.20867 5.07025 -0.0367273 4.19721 0.314937C3.32417 0.666601 2.53103 1.19076 1.86525 1.85605C1.19948 2.52135 0.674746 3.3141 0.322449 4.18689C-0.0298482 5.05968 -0.202469 5.99456 -0.185086 6.93561C-0.167702 7.87665 0.0393279 8.80452 0.423618 9.66371C0.807909 10.5229 1.36156 11.2957 2.05145 11.936L2.05504 11.9396L5.66883 15.5516L2.88637 18.334L6.41058 21.8582L9.39012 18.8769L30.0516 39.5366L36.5966 39.1657L40.4236 42.9927L43.0215 40.3948L39.1945 36.5678L39.5654 30.0228L18.9057 9.36314L21.887 6.38181L18.3395 2.8791ZM36.7937 36.8276L30.9421 37.1608L11.0331 17.2518L17.2197 11.0652L37.1287 30.9742L36.7937 36.8276Z" fill="#23467B"/>
</g>
<defs>
<clipPath id="clip0_89_626">
<rect width="43" height="43" fill="white"/>
</clipPath>
</defs>
</svg>
