<svg width="218" height="155" viewBox="0 0 218 155" fill="none" xmlns="http://www.w3.org/2000/svg">
<path d="M204.375 128.75C204.375 132.148 202.94 135.407 200.384 137.81C197.829 140.213 194.364 141.562 190.75 141.562H27.25C23.6364 141.562 20.1709 140.213 17.6157 137.81C15.0605 135.407 13.625 132.148 13.625 128.75V51.875C13.625 48.4769 15.0605 45.218 17.6157 42.8152C20.1709 40.4124 23.6364 39.0625 27.25 39.0625H43.2185C54.0536 39.0569 64.4431 35.0061 72.1035 27.8003L83.4123 17.1916C85.9602 14.7949 89.414 13.445 93.0179 13.4375H124.955C128.568 13.4382 132.033 14.7886 134.588 17.1916L145.869 27.8003C149.666 31.3713 154.173 34.204 159.134 36.1364C164.095 38.0688 169.412 39.0631 174.781 39.0625H190.75C194.364 39.0625 197.829 40.4124 200.384 42.8152C202.94 45.218 204.375 48.4769 204.375 51.875V128.75ZM27.25 26.25C20.0229 26.25 13.0917 28.9498 7.98134 33.7554C2.87097 38.561 0 45.0788 0 51.875L0 128.75C0 135.546 2.87097 142.064 7.98134 146.87C13.0917 151.675 20.0229 154.375 27.25 154.375H190.75C197.977 154.375 204.908 151.675 210.019 146.87C215.129 142.064 218 135.546 218 128.75V51.875C218 45.0788 215.129 38.561 210.019 33.7554C204.908 28.9498 197.977 26.25 190.75 26.25H174.781C167.555 26.2485 160.625 23.5478 155.516 18.7419L144.234 8.13312C139.125 3.32717 132.195 0.626451 124.968 0.625H93.0315C85.8049 0.626451 78.8749 3.32717 73.7657 8.13312L62.4842 18.7419C57.3751 23.5478 50.4451 26.2485 43.2185 26.25H27.25Z" fill="#0C0B35"/>
<path d="M109 115.938C99.9661 115.938 91.3021 112.563 84.9142 106.556C78.5262 100.549 74.9375 92.4015 74.9375 83.9062C74.9375 75.411 78.5262 67.2638 84.9142 61.2567C91.3021 55.2497 99.9661 51.875 109 51.875C118.034 51.875 126.698 55.2497 133.086 61.2567C139.474 67.2638 143.062 75.411 143.062 83.9062C143.062 92.4015 139.474 100.549 133.086 106.556C126.698 112.563 118.034 115.938 109 115.938ZM109 128.75C121.648 128.75 133.777 124.025 142.72 115.616C151.663 107.206 156.688 95.7996 156.688 83.9062C156.688 72.0129 151.663 60.6068 142.72 52.1969C133.777 43.7871 121.648 39.0625 109 39.0625C96.3525 39.0625 84.223 43.7871 75.2798 52.1969C66.3367 60.6068 61.3125 72.0129 61.3125 83.9062C61.3125 95.7996 66.3367 107.206 75.2798 115.616C84.223 124.025 96.3525 128.75 109 128.75ZM40.875 58.2812C40.875 59.9803 40.1573 61.6097 38.8797 62.8112C37.6021 64.0126 35.8693 64.6875 34.0625 64.6875C32.2557 64.6875 30.5229 64.0126 29.2453 62.8112C27.9677 61.6097 27.25 59.9803 27.25 58.2812C27.25 56.5822 27.9677 54.9528 29.2453 53.7513C30.5229 52.5499 32.2557 51.875 34.0625 51.875C35.8693 51.875 37.6021 52.5499 38.8797 53.7513C40.1573 54.9528 40.875 56.5822 40.875 58.2812Z" fill="#0C0B35"/>
</svg>
