<svg width="30" height="30" viewBox="0 0 30 30" fill="none" xmlns="http://www.w3.org/2000/svg">
<path d="M15.0001 12.5C17.7626 12.5 20.0001 10.2625 20.0001 7.5C20.0001 4.7375 17.7626 2.5 15.0001 2.5C12.2376 2.5 10.0001 4.7375 10.0001 7.5C10.0001 10.2625 12.2376 12.5 15.0001 12.5ZM15.0001 5C16.3751 5 17.5001 6.125 17.5001 7.5C17.5001 8.875 16.3751 10 15.0001 10C13.6251 10 12.5001 8.875 12.5001 7.5C12.5001 6.125 13.6251 5 15.0001 5ZM22.9876 15.7C20.8876 14.625 18.1626 13.75 15.0001 13.75C11.8376 13.75 9.11258 14.625 7.01258 15.7C6.40265 16.0141 5.89171 16.4912 5.53646 17.0781C5.1812 17.665 4.99554 18.3389 5.00008 19.025V27.5H7.50008V19.025C7.50008 18.55 7.75008 18.125 8.12508 17.925C9.63758 17.1625 12.0376 16.25 15.0001 16.25C15.9501 16.25 16.8376 16.3375 17.6626 16.5L15.7251 20.625H12.1876C10.2876 20.625 8.75008 22.1625 8.75008 24.0625C8.75008 25.9625 10.2876 27.5 12.1876 27.5H22.5001C23.8751 27.5 25.0001 26.375 25.0001 25V19.025C25.0001 17.625 24.2376 16.3375 22.9876 15.7ZM13.6751 25H12.1876C11.6751 25 11.2501 24.575 11.2501 24.0625C11.2501 23.55 11.6751 23.125 12.1876 23.125H14.5501L13.6751 25ZM22.5001 25H16.4376L20.1126 17.1625C20.7876 17.4125 21.3751 17.675 21.8751 17.925C22.2501 18.125 22.5001 18.55 22.5001 19.025V25Z" fill="white"/>
</svg>
