<svg width="30" height="30" viewBox="0 0 30 30" fill="none" xmlns="http://www.w3.org/2000/svg">
<path d="M10.6001 19.975V18.725H12.7189C12.663 18.9333 12.6193 19.1379 12.5876 19.3387C12.5568 19.5387 12.538 19.7512 12.5314 19.9762L10.6001 19.975ZM10.4339 26.25C8.9297 26.25 7.64803 25.7329 6.58887 24.6988C5.5297 23.6646 5.00012 22.4025 5.00012 20.9125V9.5675C4.42512 9.5675 3.93678 9.37083 3.53512 8.9775C3.13345 8.58333 2.93262 8.09875 2.93262 7.52375V5.8175C2.93262 5.2425 3.13345 4.75417 3.53512 4.3525C3.93678 3.95083 4.42512 3.75 5.00012 3.75H15.8414C16.4164 3.75 16.9089 3.95083 17.3189 4.3525C17.728 4.75333 17.9326 5.24167 17.9326 5.8175V7.52375C17.9326 8.09875 17.728 8.58333 17.3189 8.9775C16.9089 9.37083 16.4164 9.5675 15.8414 9.5675V14.2387C15.6455 14.3746 15.4635 14.5188 15.2951 14.6713C15.1268 14.8238 14.9668 14.9896 14.8151 15.1688H10.6014V13.9188H14.5914V9.5675H6.25012V20.9138C6.25012 22.0671 6.65845 23.0367 7.47512 23.8225C8.29178 24.6083 9.27803 25.0008 10.4339 25C10.9789 25 11.4868 24.9046 11.9576 24.7137C12.4276 24.5229 12.8476 24.2604 13.2176 23.9263C13.3043 24.1346 13.3997 24.3258 13.5039 24.5C13.608 24.6742 13.726 24.8504 13.8576 25.0288C13.391 25.4104 12.8693 25.7092 12.2926 25.925C11.716 26.1417 11.0964 26.25 10.4339 26.25ZM5.00012 8.3175H15.8414C16.0664 8.3175 16.2626 8.24125 16.4301 8.08875C16.5985 7.93625 16.6826 7.74792 16.6826 7.52375V5.8175C16.6826 5.5925 16.5985 5.4 16.4301 5.24C16.2618 5.08 16.0655 5 15.8414 5H5.00012C4.77512 5 4.58303 5.08 4.42387 5.24C4.2647 5.4 4.18428 5.5925 4.18262 5.8175V7.52375C4.18262 7.74875 4.26262 7.93708 4.42262 8.08875C4.58345 8.24125 4.77595 8.3175 5.00012 8.3175ZM20.2164 24.135C21.188 24.135 22.016 23.7929 22.7001 23.1087C23.3835 22.4246 23.7251 21.5967 23.7251 20.625C23.7251 19.6533 23.3835 18.8258 22.7001 18.1425C22.016 17.4575 21.188 17.115 20.2164 17.115C19.2455 17.115 18.418 17.4575 17.7339 18.1425C17.0497 18.8258 16.7076 19.6533 16.7076 20.625C16.7076 21.5967 17.0493 22.4246 17.7326 23.1087C18.416 23.7929 19.2439 24.1346 20.2164 24.1337M26.5914 27.8612L23.1201 24.39C22.6943 24.7133 22.2351 24.96 21.7426 25.13C21.2509 25.3 20.7422 25.385 20.2164 25.385C18.8947 25.385 17.771 24.9221 16.8451 23.9963C15.9193 23.0704 15.4568 21.9467 15.4576 20.625C15.4585 19.3033 15.921 18.1796 16.8451 17.2538C17.7693 16.3279 18.893 15.8654 20.2164 15.8663C21.5397 15.8671 22.6635 16.3296 23.5876 17.2538C24.5118 18.1779 24.9743 19.3017 24.9751 20.625C24.9751 21.15 24.8905 21.6588 24.7214 22.1513C24.5514 22.6429 24.3047 23.1021 23.9814 23.5287L27.4526 27L26.5914 27.8612Z" fill="white"/>
</svg>
