<svg width="30" height="30" viewBox="0 0 30 30" fill="none" xmlns="http://www.w3.org/2000/svg">
<path fill-rule="evenodd" clip-rule="evenodd" d="M10.4056 5.82874L10.44 5.67874C10.5056 5.39999 10.6131 4.98999 10.835 4.58624C11.0612 4.17499 11.4119 3.75811 11.9619 3.48374C12.51 3.21061 13.1969 3.10874 14.0462 3.22124C14.9837 3.34624 16.8669 3.65624 18.5306 4.50249C20.2037 5.35374 21.7712 6.81811 21.7712 9.25686C21.7712 10.5169 21.2837 11.8687 20.8112 12.75C20.5844 13.1737 20.315 13.5787 20.045 13.7969C19.9831 13.8469 19.895 13.9094 19.7856 13.9531C19.4856 14.9391 18.8884 15.8083 18.0756 16.442C17.2628 17.0757 16.2741 17.4429 15.2448 17.4933C14.2154 17.5438 13.1956 17.2751 12.3247 16.724C11.4538 16.1729 10.7744 15.3663 10.3794 14.4144L10.3644 14.4169L10.1425 14.1475L10.1419 14.1462L10.1406 14.145L10.1375 14.1406L10.1269 14.1281C10.0734 14.0615 10.0219 13.9934 9.97248 13.9237C9.83783 13.7363 9.71064 13.5437 9.59123 13.3462C9.29748 12.86 8.9431 12.1675 8.71623 11.3594C8.48998 10.5512 8.38623 9.60374 8.62373 8.62624C8.85498 7.67499 9.4006 6.73874 10.3887 5.90249L10.4056 5.82874ZM11.4556 13.7275C11.7267 14.507 12.2472 15.1754 12.9366 15.6292C13.626 16.0829 14.4457 16.2967 15.2689 16.2374C16.0921 16.1781 16.8727 15.849 17.49 15.3012C18.1072 14.7533 18.5266 14.0172 18.6831 13.2069L18.7537 13.2306C18.751 13.1953 18.7497 13.1598 18.75 13.1244C18.75 12.09 18.6062 11.3681 18.4725 10.9181C18.4462 10.8306 18.4173 10.7439 18.3856 10.6581L18.36 10.6594H18.335C17.8676 10.6694 17.4004 10.6338 16.94 10.5531C15.8669 10.3719 14.4137 9.91936 12.7025 8.87124C12.665 8.95499 12.6275 9.04936 12.59 9.15436C12.4675 9.50124 12.3669 9.91311 12.28 10.3481C12.2031 10.7312 12.14 11.1169 12.08 11.4781L12.0569 11.6206C11.9925 12.0081 11.9281 12.3887 11.8531 12.6644C11.7219 13.1431 11.5881 13.4831 11.4556 13.7269M10.5806 12.5625C10.2986 12.0778 10.0769 11.5604 9.9206 11.0219C9.73373 10.3556 9.66498 9.63436 9.83873 8.92124C10.0075 8.22749 10.4156 7.49811 11.255 6.80686C11.4062 6.70436 11.475 6.56686 11.4937 6.52999V6.52936C11.5263 6.46166 11.5526 6.39117 11.5725 6.31874C11.5925 6.24749 11.6144 6.14999 11.635 6.06249L11.6569 5.96436C11.7162 5.71249 11.7931 5.43811 11.9306 5.18749C12.0644 4.94499 12.2475 4.73749 12.52 4.60186C12.7937 4.46499 13.2175 4.37124 13.8812 4.45999C14.7894 4.58061 16.4975 4.86999 17.9637 5.61624C19.42 6.35686 20.5212 7.47811 20.5212 9.25624C20.5212 10.075 20.2462 11.0062 19.915 11.7406C19.8525 11.2619 19.7625 10.8706 19.67 10.5606C19.6048 10.3393 19.5244 10.1227 19.4294 9.91249C19.3929 9.83485 19.3533 9.75874 19.3106 9.68436L19.3 9.66749L19.2962 9.66124L19.2944 9.65811L19.2931 9.65624L19.0619 9.29749L18.6481 9.38061L18.6394 9.38249L18.5787 9.39061C18.4857 9.40105 18.3923 9.40731 18.2987 9.40936C17.9134 9.41676 17.5282 9.38662 17.1487 9.31936C16.1406 9.14936 14.6594 8.68624 12.86 7.48811L12.4225 7.19624L12.0606 7.57749C11.7625 7.89124 11.56 8.31936 11.4119 8.73624C11.2606 9.16436 11.1462 9.64249 11.0544 10.1012C10.9781 10.4916 10.909 10.8834 10.8469 11.2762L10.8231 11.4162C10.7562 11.8231 10.7019 12.1337 10.6469 12.335C10.6244 12.4179 10.6023 12.4937 10.5806 12.5625Z" fill="white"/>
<path fill-rule="evenodd" clip-rule="evenodd" d="M11.1962 18.0343C11.0637 17.7706 10.9006 17.4449 10.625 17.5081C7.2475 18.2768 3.75 20.4962 3.75 22.8562V26.2499H26.25V22.8562C26.25 20.9974 24.08 19.2256 21.5081 18.1812L21.505 18.1749L21.4963 18.1581L21.4756 18.1681C20.7925 17.8931 20.0812 17.6681 19.375 17.5081C19.0606 17.4362 18.7356 17.8687 18.5938 18.1393H11.25L11.1962 18.0343ZM19.6269 18.8593C19.9002 18.9352 20.1712 19.0199 20.44 19.1137C20.4475 19.3274 20.4312 19.5799 20.3962 19.8374C20.3609 20.1041 20.304 20.3674 20.2262 20.6249H19.375C19.259 20.625 19.1452 20.6574 19.0465 20.7184C18.9479 20.7795 18.8681 20.8668 18.8163 20.9706L18.1913 22.2206C18.1478 22.3073 18.1251 22.4029 18.125 22.4999V23.7499C18.125 23.9157 18.1908 24.0747 18.3081 24.1919C18.4253 24.3091 18.5842 24.3749 18.75 24.3749H20V23.1249H19.375V22.6474L19.7612 21.8749H21.4888L21.875 22.6474V23.1249H21.25V24.3749H22.5C22.6658 24.3749 22.8247 24.3091 22.9419 24.1919C23.0592 24.0747 23.125 23.9157 23.125 23.7499V22.4999C23.1249 22.4029 23.1022 22.3073 23.0588 22.2206L22.4338 20.9706C22.3819 20.8668 22.3021 20.7795 22.2035 20.7184C22.1048 20.6574 21.991 20.625 21.875 20.6249H21.5212C21.5977 20.294 21.6495 19.9579 21.6763 19.6193C22.2856 19.9074 22.8519 20.2381 23.3425 20.5956C24.5437 21.4718 25 22.2918 25 22.8562V24.9999H5V22.8562C5 22.2918 5.45625 21.4718 6.6575 20.5956C7.26125 20.1549 7.98187 19.7562 8.75437 19.4262C8.77595 19.9242 8.85587 20.418 8.9925 20.8974L8.9975 20.9149C8.62385 21.1513 8.34576 21.5121 8.21234 21.9337C8.07891 22.3552 8.09874 22.8103 8.26833 23.2186C8.43791 23.627 8.74634 23.9622 9.13913 24.1652C9.53192 24.3682 9.98381 24.4258 10.415 24.328C10.8462 24.2301 11.2289 23.983 11.4955 23.6303C11.7622 23.2776 11.8956 22.8421 11.8723 22.4006C11.849 21.959 11.6704 21.54 11.368 21.2173C11.0657 20.8947 10.6591 20.6893 10.22 20.6374L10.1925 20.5474C10.1264 20.3146 10.0773 20.0774 10.0456 19.8374C10.0106 19.5951 9.99595 19.3503 10.0019 19.1056C10.004 19.0531 10.0071 19.0064 10.0112 18.9656C10.0862 18.9422 10.1613 18.9199 10.2362 18.8987L10.4956 19.3899H19.3481L19.6269 18.8593ZM10 23.1349C10.3362 23.1349 10.625 22.8599 10.625 22.5006C10.625 22.1418 10.3362 21.8662 10 21.8662C9.66375 21.8662 9.375 22.1412 9.375 22.5006C9.375 22.8593 9.66375 23.1349 10 23.1349Z" fill="white"/>
</svg>
