<svg width="105" height="105" viewBox="0 0 105 105" fill="none" xmlns="http://www.w3.org/2000/svg">
<path fill-rule="evenodd" clip-rule="evenodd" d="M36.4197 20.4006L36.54 19.8756C36.7697 18.9 37.1459 17.465 37.9225 16.0519C38.7144 14.6125 39.9415 13.1535 41.8665 12.1931C43.785 11.2372 46.189 10.8806 49.1619 11.2744C52.4431 11.7119 59.034 12.7969 64.8572 15.7588C70.7131 18.7381 76.1994 23.8635 76.1994 32.3991C76.1994 36.8091 74.4931 41.5406 72.8394 44.625C72.0453 46.1081 71.1025 47.5256 70.1575 48.2891C69.9409 48.4641 69.6325 48.6828 69.2497 48.836C68.1996 52.2869 66.1093 55.3292 63.2646 57.5471C60.4199 59.765 56.9596 61.0501 53.3567 61.2268C49.7539 61.4034 46.1845 60.463 43.1364 58.5341C40.0884 56.6052 37.7104 53.7819 36.3278 50.4503L36.2753 50.4591L35.4987 49.5163L35.4965 49.5119L35.4922 49.5075L35.4812 49.4922L35.444 49.4485C35.2568 49.2155 35.0767 48.9769 34.9037 48.7331C34.4314 48.078 33.9862 47.4037 33.5694 46.7119C32.5412 45.01 31.3009 42.5863 30.5069 39.7578C29.715 36.9294 29.3519 33.6131 30.1831 30.1919C30.9925 26.8625 32.9022 23.5856 36.3606 20.6588L36.4197 20.4006ZM40.0947 48.0463C41.0434 50.7746 42.8653 53.114 45.2781 54.7021C47.6909 56.2902 50.5601 57.0385 53.4412 56.8309C56.3223 56.6234 59.0546 55.4717 61.2149 53.5541C63.3752 51.6366 64.843 49.0602 65.3909 46.2241L65.6381 46.3072C65.6294 46.1834 65.625 46.0594 65.625 45.9353C65.625 42.315 65.1218 39.7885 64.6537 38.2135C64.5623 37.9069 64.4609 37.6034 64.3497 37.3035L64.26 37.3078H64.1725C62.5368 37.3431 60.9015 37.2186 59.29 36.936C55.534 36.3016 50.4481 34.7178 44.4587 31.0494C44.3275 31.3425 44.1962 31.6728 44.065 32.0403C43.6362 33.2544 43.284 34.696 42.98 36.2185C42.7109 37.5594 42.49 38.9091 42.28 40.1735L42.199 40.6722C41.9737 42.0285 41.7484 43.3606 41.4859 44.3253C41.0265 46.001 40.5584 47.191 40.0947 48.0441V48.0463ZM37.0322 43.971C36.0441 42.275 35.2683 40.464 34.7222 38.5788C34.0681 36.2469 33.8275 33.7225 34.4356 31.2266C35.0262 28.7985 36.4547 26.2456 39.3925 23.8263C39.9219 23.4675 40.1625 22.9863 40.2281 22.8572V22.855C40.343 22.6185 40.4353 22.3717 40.5037 22.1178C40.5737 21.8685 40.6503 21.5272 40.7225 21.221L40.799 20.8775C41.0069 19.996 41.2759 19.0356 41.7572 18.1585C42.2253 17.3097 42.8662 16.5835 43.82 16.1088C44.7781 15.6297 46.2612 15.3016 48.5843 15.6122C51.7628 16.0344 57.7412 17.0472 62.8731 19.6591C67.97 22.2513 71.8244 26.1756 71.8244 32.3991C71.8244 35.2647 70.8619 38.5241 69.7025 41.0944C69.4837 39.4188 69.1687 38.0494 68.845 36.9644C68.6193 36.1889 68.3378 35.4308 68.0028 34.696C67.8765 34.4236 67.7378 34.1572 67.5872 33.8975L67.55 33.8385L67.5369 33.8166L67.5303 33.8056L67.5259 33.7991L66.7165 32.5435L65.2684 32.8344L65.2378 32.841L65.0256 32.8694C64.7001 32.9057 64.3731 32.9276 64.0456 32.935C62.6969 32.9611 61.3488 32.8556 60.0206 32.62C56.4922 32.025 51.3078 30.4041 45.01 26.2106L43.4787 25.1891L42.2122 26.5235C41.1687 27.6216 40.46 29.12 39.9415 30.5791C39.4122 32.0775 39.0119 33.751 38.6903 35.3566C38.4237 36.723 38.1816 38.094 37.964 39.4691L37.8809 39.9591C37.6469 41.3831 37.4565 42.4703 37.264 43.1747C37.1922 43.4417 37.1149 43.7072 37.0322 43.971Z" fill="#0C0B35"/>
<path fill-rule="evenodd" clip-rule="evenodd" d="M39.1869 63.1203C38.7231 62.1972 38.1522 61.0575 37.1875 61.2784C25.3663 63.9691 13.125 71.7369 13.125 79.9969V91.875H91.875V79.9969C91.875 73.4912 84.28 67.2897 75.2784 63.6344L75.2675 63.6125C75.2575 63.5927 75.2473 63.573 75.2369 63.5534L75.1647 63.5884C72.7738 62.6259 70.2844 61.8384 67.8125 61.2784C66.7122 61.0269 65.5747 62.5406 65.0781 63.4878H39.375C39.3137 63.3741 39.2525 63.2472 39.1869 63.1203ZM68.6941 66.0078C69.65 66.2725 70.6016 66.57 71.54 66.8981C71.5662 67.6462 71.5094 68.53 71.3869 69.4312C71.2621 70.3643 71.0632 71.286 70.7919 72.1875H67.8125C67.4064 72.1877 67.0083 72.301 66.6629 72.5146C66.3175 72.7283 66.0384 73.0339 65.8569 73.3972L63.6694 77.7722C63.5173 78.0757 63.4379 78.4105 63.4375 78.75V83.125C63.4375 83.7052 63.668 84.2616 64.0782 84.6718C64.4884 85.082 65.0448 85.3125 65.625 85.3125H70V80.9375H67.8125V79.2662L69.1644 76.5625H75.2106L76.5625 79.2662V80.9375H74.375V85.3125H78.75C79.3302 85.3125 79.8866 85.082 80.2968 84.6718C80.707 84.2616 80.9375 83.7052 80.9375 83.125V78.75C80.9371 78.4105 80.8577 78.0757 80.7056 77.7722L78.5181 73.3972C78.3366 73.0339 78.0575 72.7283 77.7121 72.5146C77.3667 72.301 76.9686 72.1877 76.5625 72.1875H75.3244C75.5947 71.0298 75.776 69.8531 75.8669 68.6678C77.9997 69.6762 79.9816 70.8334 81.6987 72.0847C85.9031 75.1515 87.5 78.0215 87.5 79.9969V87.5H17.5V79.9969C17.5 78.0215 19.0969 75.1515 23.3013 72.0847C25.4144 70.5425 27.9366 69.1469 30.6403 67.9919C30.7154 69.735 30.9951 71.4634 31.4737 73.1412L31.4912 73.2025C30.1835 74.0298 29.2102 75.2927 28.7432 76.768C28.2762 78.2434 28.3456 79.8363 28.9391 81.2654C29.5327 82.6946 30.6122 83.868 31.9869 84.5784C33.3617 85.2889 34.9433 85.4906 36.4524 85.1481C37.9615 84.8055 39.301 83.9407 40.2343 82.7063C41.1677 81.472 41.6347 79.9475 41.5531 78.4021C41.4715 76.8568 40.8463 75.39 39.7882 74.2609C38.73 73.1317 37.3068 72.4129 35.77 72.2312C35.4905 71.316 35.2856 70.3796 35.1575 69.4312C35.0357 68.5831 34.9852 67.7262 35.0066 66.8697C35.0129 66.7061 35.0238 66.5427 35.0394 66.3797C35.3019 66.2987 35.5644 66.22 35.8269 66.1456L36.7347 67.865H67.7184L68.6941 66.01V66.0078ZM35 80.9725C36.1769 80.9725 37.1875 80.01 37.1875 78.7522C37.1875 77.4965 36.1769 76.5319 35 76.5319C33.8231 76.5319 32.8125 77.4944 32.8125 78.7522C32.8125 80.0078 33.8231 80.9725 35 80.9725Z" fill="#0C0B35"/>
</svg>
