<svg width="130" height="124" viewBox="0 0 130 124" fill="none" xmlns="http://www.w3.org/2000/svg">
<path d="M65 8.10707C57.3893 8.10651 50.0735 11.0509 44.5852 16.3236C39.0968 21.5963 35.8616 28.7881 35.5571 36.3928C35.5156 37.4303 35.074 38.4114 34.325 39.1305C33.576 39.8496 32.5776 40.2508 31.5393 40.2499H30.1786C24.4954 40.2499 19.0449 42.5076 15.0263 46.5262C11.0076 50.5448 8.75 55.9953 8.75 61.6785C8.75 67.3617 11.0076 72.8121 15.0263 76.8308C19.0449 80.8494 24.4954 83.1071 30.1786 83.1071H54.6393C54.2839 85.7701 54.1942 88.462 54.3714 91.1428H30.1786C22.5652 91.1413 15.248 88.1928 9.76051 82.9154C4.27304 77.638 1.04137 70.4414 0.742836 62.8339C0.444299 55.2264 3.10207 47.7986 8.1591 42.1074C13.2161 36.4162 20.2798 32.9034 27.8696 32.3053C29.1435 23.3651 33.6002 15.1847 40.4212 9.26664C47.2422 3.3486 55.9695 0.090332 65 0.090332C74.0305 0.090332 82.7578 3.3486 89.5788 9.26664C96.3998 15.1847 100.857 23.3651 102.13 32.3053C106.282 32.6311 110.317 33.8333 113.97 35.8326C117.623 37.8318 120.811 40.5828 123.324 43.904C125.836 47.2252 127.616 51.0412 128.545 55.1004C129.475 59.1597 129.534 63.3699 128.718 67.4535C126.611 64.0263 124.004 60.9332 120.982 58.2767C120.172 53.2475 117.598 48.6712 113.72 45.3678C109.843 42.0644 104.915 40.2501 99.8214 40.2499H98.4554C97.417 40.2508 96.4187 39.8496 95.6696 39.1305C94.9206 38.4114 94.479 37.4303 94.4375 36.3928C94.1331 28.7891 90.8986 21.598 85.4114 16.3255C79.9242 11.0529 72.6098 8.1079 65 8.10707ZM129.286 88.4642C129.286 97.6994 125.617 106.556 119.087 113.087C112.556 119.617 103.7 123.286 94.4643 123.286C85.2291 123.286 76.3721 119.617 69.8418 113.087C63.3115 106.556 59.6429 97.6994 59.6429 88.4642C59.6429 79.229 63.3115 70.372 69.8418 63.8417C76.3721 57.3115 85.2291 53.6428 94.4643 53.6428C103.7 53.6428 112.556 57.3115 119.087 63.8417C125.617 70.372 129.286 79.229 129.286 88.4642ZM94.4643 69.7142C93.7539 69.7142 93.0726 69.9964 92.5703 70.4987C92.0679 71.0011 91.7857 71.6824 91.7857 72.3928V93.8214C91.7857 94.5318 92.0679 95.2131 92.5703 95.7154C93.0726 96.2177 93.7539 96.4999 94.4643 96.4999C95.1747 96.4999 95.856 96.2177 96.3583 95.7154C96.8607 95.2131 97.1429 94.5318 97.1429 93.8214V72.3928C97.1429 71.6824 96.8607 71.0011 96.3583 70.4987C95.856 69.9964 95.1747 69.7142 94.4643 69.7142ZM94.4643 107.884C95.3523 107.884 96.2039 107.531 96.8318 106.903C97.4597 106.275 97.8125 105.424 97.8125 104.536C97.8125 103.648 97.4597 102.796 96.8318 102.168C96.2039 101.54 95.3523 101.187 94.4643 101.187C93.5763 101.187 92.7247 101.54 92.0967 102.168C91.4688 102.796 91.1161 103.648 91.1161 104.536C91.1161 105.424 91.4688 106.275 92.0967 106.903C92.7247 107.531 93.5763 107.884 94.4643 107.884Z" fill="#1C274C"/>
</svg>
