<svg width="105" height="105" viewBox="0 0 105 105" fill="none" xmlns="http://www.w3.org/2000/svg">
<path fill-rule="evenodd" clip-rule="evenodd" d="M17.5 19.6875H70V48.125H76.5625V13.125H10.9375V65.625C10.9375 67.9456 11.8594 70.1712 13.5003 71.8122C15.1413 73.4531 17.3669 74.375 19.6875 74.375H50.3125V67.8125H19.6875C19.1073 67.8125 18.5509 67.582 18.1407 67.1718C17.7305 66.7616 17.5 66.2052 17.5 65.625V19.6875ZM63.4375 28.4375H24.0625V35H63.4375V28.4375ZM41.5625 41.5625H24.0625V48.125H41.5625V41.5625ZM56.875 48.125H52.5V52.5H56.875V48.125ZM52.5 41.5625H45.9375V59.0625H63.4375V41.5625H56.875H52.5ZM41.5625 52.5H24.0625V59.0625H41.5625V52.5ZM70 57.9688H76.5625V67.8125H86.4062V74.375H76.5625V84.2188H70V74.375H60.1562V67.8125H70V57.9688Z" fill="#0C0B35"/>
</svg>
