<svg width="38" height="39" viewBox="0 0 38 39" fill="none" xmlns="http://www.w3.org/2000/svg">
<path d="M34.5254 16.3174H33.25V16.25H19V22.75H27.9482C26.6427 26.5338 23.1349 29.25 19 29.25C13.7536 29.25 9.5 24.8844 9.5 19.5C9.5 14.1156 13.7536 9.75 19 9.75C21.4217 9.75 23.6249 10.6876 25.3025 12.2192L29.7809 7.62288C26.9531 4.91806 23.1705 3.25 19 3.25C10.256 3.25 3.16666 10.5259 3.16666 19.5C3.16666 28.4741 10.256 35.75 19 35.75C27.744 35.75 34.8333 28.4741 34.8333 19.5C34.8333 18.4104 34.7241 17.3469 34.5254 16.3174Z" fill="#FFC107"/>
<path d="M4.99225 11.9364L10.1943 15.8519C11.6019 12.2753 15.0108 9.75 19 9.75C21.4217 9.75 23.6249 10.6876 25.3025 12.2192L29.7809 7.62288C26.9531 4.91806 23.1705 3.25 19 3.25C12.9184 3.25 7.64433 6.77381 4.99225 11.9364Z" fill="#FF3D00"/>
<path d="M19 35.75C23.0897 35.75 26.8058 34.1437 29.6155 31.5315L24.715 27.2756C23.072 28.5581 21.0642 29.2517 19 29.25C14.8817 29.25 11.385 26.5549 10.0676 22.7939L4.90437 26.8767C7.52479 32.1392 12.8464 35.75 19 35.75Z" fill="#4CAF50"/>
<path d="M34.5254 16.3174H33.25V16.25H19V22.75H27.9482C27.3237 24.5508 26.1989 26.1245 24.7127 27.2764L24.715 27.2748L29.6155 31.5307C29.2687 31.8541 34.8333 27.625 34.8333 19.5C34.8333 18.4104 34.7241 17.3469 34.5254 16.3174Z" fill="#1976D2"/>
</svg>
