<svg width="43" height="43" viewBox="0 0 43 43" fill="none" xmlns="http://www.w3.org/2000/svg">
<path d="M8.82978 8.89202L7.48961 8.22658L8.82978 8.89202C9.07387 8.40043 9.4794 7.9374 10.3046 7.33802C11.1569 6.7189 12.3259 6.04424 14.0219 5.06881L16.0299 3.91389L15.282 2.61362L16.0299 3.91389C17.5699 3.02813 18.6322 2.41912 19.5157 2.02095C20.3686 1.63661 20.9487 1.5 21.5 1.5C22.0513 1.5 22.6315 1.63661 23.4843 2.02095C24.3678 2.41911 25.43 3.02813 26.97 3.91388L26.9701 3.91391L28.9781 5.0688C28.9781 5.06881 28.9781 5.06882 28.9782 5.06882C30.6741 6.04425 31.8431 6.7189 32.6954 7.33802C33.5206 7.9374 33.9261 8.40042 34.1701 8.89196L34.1702 8.89206C34.4121 9.37933 34.5285 9.96094 34.494 10.9374C34.4581 11.9534 34.2686 13.2404 33.9884 15.1199L33.9884 15.12L33.5843 17.8321C33.5843 17.8322 33.5843 17.8322 33.5843 17.8322C33.2249 20.2435 32.9739 21.9071 32.6176 23.1532C32.2744 24.3532 31.8806 24.9847 31.345 25.43C30.8021 25.8813 30.0731 26.1747 28.7587 26.3338C27.4074 26.4974 25.6401 26.5 23.1038 26.5H19.8962C17.3599 26.5 15.5926 26.4974 14.2413 26.3338C12.9269 26.1747 12.1979 25.8813 11.655 25.43L10.6961 26.5835L11.655 25.43C11.1194 24.9847 10.7255 24.3532 10.3824 23.1532C10.026 21.9071 9.77507 20.2435 9.41573 17.8322L9.41573 17.8322L9.01151 15.12C9.01151 15.12 9.01151 15.12 9.01151 15.1199C8.73141 13.2404 8.54186 11.9534 8.50596 10.9374C8.47145 9.96091 8.58784 9.37929 8.82978 8.89202ZM17.1501 19.8497C15.7711 19.8497 14.5626 20.9422 14.5626 22.3997C14.5626 23.8572 15.7711 24.9497 17.1501 24.9497H25.8501C27.2291 24.9497 28.4376 23.8572 28.4376 22.3997C28.4376 20.9422 27.2291 19.8497 25.8501 19.8497H17.1501Z" stroke="#101352" stroke-width="3"/>
</svg>
