<svg width="79" height="81" viewBox="0 0 79 81" fill="none" xmlns="http://www.w3.org/2000/svg">
<path fill-rule="evenodd" clip-rule="evenodd" d="M23.4197 9.40064L23.54 8.87564C23.7697 7.90002 24.1459 6.46502 24.9225 5.05189C25.7144 3.61252 26.9415 2.15346 28.8665 1.19314C30.785 0.237205 33.189 -0.119358 36.1619 0.274392C39.4431 0.711892 46.034 1.79689 51.8572 4.75877C57.7131 7.73814 63.1994 12.8635 63.1994 21.3991C63.1994 25.8091 61.4931 30.5406 59.8394 33.625C59.0453 35.1081 58.1025 36.5256 57.1575 37.2891C56.9409 37.4641 56.6325 37.6828 56.2497 37.836C55.1996 41.2869 53.1093 44.3292 50.2646 46.5471C47.4199 48.765 43.9596 50.0501 40.3567 50.2268C36.7539 50.4034 33.1845 49.463 30.1364 47.5341C27.0884 45.6052 24.7104 42.7819 23.3278 39.4503L23.2753 39.4591L22.4987 38.5163L22.4965 38.5119L22.4922 38.5075L22.4812 38.4922L22.444 38.4485C22.2568 38.2155 22.0767 37.9769 21.9037 37.7331C21.4314 37.078 20.9862 36.4037 20.5694 35.7119C19.5412 34.01 18.3009 31.5863 17.5069 28.7578C16.715 25.9294 16.3519 22.6131 17.1831 19.1919C17.9925 15.8625 19.9022 12.5856 23.3606 9.65877L23.4197 9.40064ZM27.0947 37.0463C28.0434 39.7746 29.8653 42.114 32.2781 43.7021C34.6909 45.2902 37.5601 46.0385 40.4412 45.8309C43.3223 45.6234 46.0546 44.4717 48.2149 42.5541C50.3752 40.6366 51.843 38.0602 52.3909 35.2241L52.6381 35.3072C52.6294 35.1834 52.625 35.0594 52.625 34.9353C52.625 31.315 52.1218 28.7885 51.6537 27.2135C51.5623 26.9069 51.4609 26.6034 51.3497 26.3035L51.26 26.3078H51.1725C49.5368 26.3431 47.9015 26.2186 46.29 25.936C42.534 25.3016 37.4481 23.7178 31.4587 20.0494C31.3275 20.3425 31.1962 20.6728 31.065 21.0403C30.6362 22.2544 30.284 23.696 29.98 25.2185C29.7109 26.5594 29.49 27.9091 29.28 29.1735L29.199 29.6722C28.9737 31.0285 28.7484 32.3606 28.4859 33.3253C28.0265 35.001 27.5584 36.191 27.0947 37.0441V37.0463ZM24.0322 32.971C23.0441 31.275 22.2683 29.464 21.7222 27.5788C21.0681 25.2469 20.8275 22.7225 21.4356 20.2266C22.0262 17.7985 23.4547 15.2456 26.3925 12.8263C26.9219 12.4675 27.1625 11.9863 27.2281 11.8572V11.855C27.343 11.6185 27.4353 11.3717 27.5037 11.1178C27.5737 10.8685 27.6503 10.5272 27.7225 10.221L27.799 9.87752C28.0069 8.99595 28.2759 8.03564 28.7572 7.15845C29.2253 6.3097 29.8662 5.58345 30.82 5.10877C31.7781 4.6297 33.2612 4.30158 35.5843 4.61221C38.7628 5.03439 44.7412 6.04721 49.8731 8.65908C54.97 11.2513 58.8244 15.1756 58.8244 21.3991C58.8244 24.2647 57.8619 27.5241 56.7025 30.0944C56.4837 28.4188 56.1687 27.0494 55.845 25.9644C55.6193 25.1889 55.3378 24.4308 55.0028 23.696C54.8765 23.4236 54.7378 23.1572 54.5872 22.8975L54.55 22.8385L54.5369 22.8166L54.5303 22.8056L54.5259 22.7991L53.7165 21.5435L52.2684 21.8344L52.2378 21.841L52.0256 21.8694C51.7001 21.9057 51.3731 21.9276 51.0456 21.935C49.6969 21.9611 48.3488 21.8556 47.0206 21.62C43.4922 21.025 38.3078 19.4041 32.01 15.2106L30.4787 14.1891L29.2122 15.5235C28.1687 16.6216 27.46 18.12 26.9415 19.5791C26.4122 21.0775 26.0119 22.751 25.6903 24.3566C25.4237 25.723 25.1816 27.094 24.964 28.4691L24.8809 28.9591C24.6469 30.3831 24.4565 31.4703 24.264 32.1747C24.1922 32.4417 24.1149 32.7072 24.0322 32.971Z" fill="#0C0B35"/>
<path fill-rule="evenodd" clip-rule="evenodd" d="M26.1869 52.1203C25.7231 51.1972 25.1522 50.0575 24.1875 50.2784C12.3663 52.9691 0.125 60.7369 0.125 68.9969V80.875H78.875V68.9969C78.875 62.4912 71.28 56.2897 62.2784 52.6344L62.2675 52.6125C62.2575 52.5927 62.2473 52.573 62.2369 52.5534L62.1647 52.5884C59.7738 51.6259 57.2844 50.8384 54.8125 50.2784C53.7122 50.0269 52.5747 51.5406 52.0781 52.4878H26.375C26.3137 52.3741 26.2525 52.2472 26.1869 52.1203ZM55.6941 55.0078C56.65 55.2725 57.6016 55.57 58.54 55.8981C58.5662 56.6462 58.5094 57.53 58.3869 58.4312C58.2621 59.3643 58.0632 60.286 57.7919 61.1875H54.8125C54.4064 61.1877 54.0083 61.301 53.6629 61.5146C53.3175 61.7283 53.0384 62.0339 52.8569 62.3972L50.6694 66.7722C50.5173 67.0757 50.4379 67.4105 50.4375 67.75V72.125C50.4375 72.7052 50.668 73.2616 51.0782 73.6718C51.4884 74.082 52.0448 74.3125 52.625 74.3125H57V69.9375H54.8125V68.2662L56.1644 65.5625H62.2106L63.5625 68.2662V69.9375H61.375V74.3125H65.75C66.3302 74.3125 66.8866 74.082 67.2968 73.6718C67.707 73.2616 67.9375 72.7052 67.9375 72.125V67.75C67.9371 67.4105 67.8577 67.0757 67.7056 66.7722L65.5181 62.3972C65.3366 62.0339 65.0575 61.7283 64.7121 61.5146C64.3667 61.301 63.9686 61.1877 63.5625 61.1875H62.3244C62.5947 60.0298 62.776 58.8531 62.8669 57.6678C64.9997 58.6762 66.9816 59.8334 68.6987 61.0847C72.9031 64.1515 74.5 67.0216 74.5 68.9969V76.5H4.5V68.9969C4.5 67.0216 6.09688 64.1515 10.3013 61.0847C12.4144 59.5425 14.9366 58.1469 17.6403 56.9919C17.7154 58.735 17.9951 60.4634 18.4737 62.1412L18.4912 62.2025C17.1835 63.0298 16.2102 64.2927 15.7432 65.768C15.2762 67.2434 15.3456 68.8363 15.9391 70.2654C16.5327 71.6946 17.6122 72.868 18.9869 73.5784C20.3617 74.2889 21.9433 74.4906 23.4524 74.1481C24.9615 73.8055 26.301 72.9407 27.2343 71.7063C28.1677 70.472 28.6347 68.9475 28.5531 67.4021C28.4715 65.8568 27.8463 64.39 26.7882 63.2609C25.73 62.1317 24.3068 61.4129 22.77 61.2312C22.4905 60.316 22.2856 59.3796 22.1575 58.4312C22.0357 57.5831 21.9852 56.7262 22.0066 55.8697C22.0129 55.7061 22.0238 55.5427 22.0394 55.3797C22.3019 55.2987 22.5644 55.22 22.8269 55.1456L23.7347 56.865H54.7184L55.6941 55.01V55.0078ZM22 69.9725C23.1769 69.9725 24.1875 69.01 24.1875 67.7522C24.1875 66.4965 23.1769 65.5319 22 65.5319C20.8231 65.5319 19.8125 66.4944 19.8125 67.7522C19.8125 69.0078 20.8231 69.9725 22 69.9725Z" fill="#0C0B35"/>
</svg>
