<svg width="70" height="70" viewBox="0 0 70 70" fill="none" xmlns="http://www.w3.org/2000/svg">
<path d="M54.635 45.6377C55.962 45.5937 57.2458 45.1559 58.3231 44.3799V48.1774C58.3231 51.8196 56.1531 55.0636 52.8544 56.4111C53.5647 54.8873 54.0404 53.2648 54.2653 51.5986L54.635 45.6377Z" fill="url(#paint0_radial_45_552)"/>
<path d="M14.9822 45.6377C13.6545 45.5942 12.3698 45.1563 11.2919 44.3799V48.1774C11.2919 51.8196 13.4619 55.0636 16.7606 56.4111C16.0511 54.8872 15.5761 53.2647 15.3519 51.5986L14.9822 45.6377Z" fill="url(#paint1_radial_45_552)"/>
<g filter="url(#filter0_ii_45_552)">
<path d="M15.1309 51.8173C15.6355 55.6618 17.5218 59.1914 20.4376 61.7474C23.3534 64.3034 27.0997 65.7111 30.9772 65.7079H38.6728C42.5503 65.7111 46.2966 64.3034 49.2124 61.7474C52.1282 59.1914 54.0145 55.6618 54.5191 51.8173C55.0003 44.1348 55.4837 36.4829 55.8425 28.8048C55.7988 25.6767 53.3312 23.0954 50.2163 22.9642H44.5069C42.5954 22.961 40.7259 22.4034 39.125 21.359C37.5242 20.3145 36.2607 18.828 35.4878 17.0798C35.2876 16.577 34.9414 16.1458 34.4938 15.8417C34.0462 15.5375 33.5177 15.3745 32.9766 15.3735H27.7856C20.2584 15.3735 14.1575 21.5423 14.1575 29.1548C14.1575 36.7454 14.6322 44.2092 15.1309 51.8173Z" fill="url(#paint2_radial_45_552)"/>
</g>
<path d="M15.1309 51.8173C15.6355 55.6618 17.5218 59.1914 20.4376 61.7474C23.3534 64.3034 27.0997 65.7111 30.9772 65.7079H38.6728C42.5503 65.7111 46.2966 64.3034 49.2124 61.7474C52.1282 59.1914 54.0145 55.6618 54.5191 51.8173C55.0003 44.1348 55.4837 36.4829 55.8425 28.8048C55.7988 25.6767 53.3312 23.0954 50.2163 22.9642H44.5069C42.5954 22.961 40.7259 22.4034 39.125 21.359C37.5242 20.3145 36.2607 18.828 35.4878 17.0798C35.2876 16.577 34.9414 16.1458 34.4938 15.8417C34.0462 15.5375 33.5177 15.3745 32.9766 15.3735H27.7856C20.2584 15.3735 14.1575 21.5423 14.1575 29.1548C14.1575 36.7454 14.6322 44.2092 15.1309 51.8173Z" fill="url(#paint3_linear_45_552)"/>
<path d="M15.1309 51.8173C15.6355 55.6618 17.5218 59.1914 20.4376 61.7474C23.3534 64.3034 27.0997 65.7111 30.9772 65.7079H38.6728C42.5503 65.7111 46.2966 64.3034 49.2124 61.7474C52.1282 59.1914 54.0145 55.6618 54.5191 51.8173C55.0003 44.1348 55.4837 36.4829 55.8425 28.8048C55.7988 25.6767 53.3312 23.0954 50.2163 22.9642H44.5069C42.5954 22.961 40.7259 22.4034 39.125 21.359C37.5242 20.3145 36.2607 18.828 35.4878 17.0798C35.2876 16.577 34.9414 16.1458 34.4938 15.8417C34.0462 15.5375 33.5177 15.3745 32.9766 15.3735H27.7856C20.2584 15.3735 14.1575 21.5423 14.1575 29.1548C14.1575 36.7454 14.6322 44.2092 15.1309 51.8173Z" fill="url(#paint4_radial_45_552)"/>
<path d="M15.1309 51.8173C15.6355 55.6618 17.5218 59.1914 20.4376 61.7474C23.3534 64.3034 27.0997 65.7111 30.9772 65.7079H38.6728C42.5503 65.7111 46.2966 64.3034 49.2124 61.7474C52.1282 59.1914 54.0145 55.6618 54.5191 51.8173C55.0003 44.1348 55.4837 36.4829 55.8425 28.8048C55.7988 25.6767 53.3312 23.0954 50.2163 22.9642H44.5069C42.5954 22.961 40.7259 22.4034 39.125 21.359C37.5242 20.3145 36.2607 18.828 35.4878 17.0798C35.2876 16.577 34.9414 16.1458 34.4938 15.8417C34.0462 15.5375 33.5177 15.3745 32.9766 15.3735H27.7856C20.2584 15.3735 14.1575 21.5423 14.1575 29.1548C14.1575 36.7454 14.6322 44.2092 15.1309 51.8173Z" fill="url(#paint5_radial_45_552)"/>
<path d="M15.1309 51.8173C15.6355 55.6618 17.5218 59.1914 20.4376 61.7474C23.3534 64.3034 27.0997 65.7111 30.9772 65.7079H38.6728C42.5503 65.7111 46.2966 64.3034 49.2124 61.7474C52.1282 59.1914 54.0145 55.6618 54.5191 51.8173C55.0003 44.1348 55.4837 36.4829 55.8425 28.8048C55.7988 25.6767 53.3312 23.0954 50.2163 22.9642H44.5069C42.5954 22.961 40.7259 22.4034 39.125 21.359C37.5242 20.3145 36.2607 18.828 35.4878 17.0798C35.2876 16.577 34.9414 16.1458 34.4938 15.8417C34.0462 15.5375 33.5177 15.3745 32.9766 15.3735H27.7856C20.2584 15.3735 14.1575 21.5423 14.1575 29.1548C14.1575 36.7454 14.6322 44.2092 15.1309 51.8173Z" fill="url(#paint6_radial_45_552)"/>
<path d="M15.1309 51.8173C15.6355 55.6618 17.5218 59.1914 20.4376 61.7474C23.3534 64.3034 27.0997 65.7111 30.9772 65.7079H38.6728C42.5503 65.7111 46.2966 64.3034 49.2124 61.7474C52.1282 59.1914 54.0145 55.6618 54.5191 51.8173C55.0003 44.1348 55.4837 36.4829 55.8425 28.8048C55.7988 25.6767 53.3312 23.0954 50.2163 22.9642H44.5069C42.5954 22.961 40.7259 22.4034 39.125 21.359C37.5242 20.3145 36.2607 18.828 35.4878 17.0798C35.2876 16.577 34.9414 16.1458 34.4938 15.8417C34.0462 15.5375 33.5177 15.3745 32.9766 15.3735H27.7856C20.2584 15.3735 14.1575 21.5423 14.1575 29.1548C14.1575 36.7454 14.6322 44.2092 15.1309 51.8173Z" fill="url(#paint7_radial_45_552)"/>
<path d="M15.1309 51.8173C15.6355 55.6618 17.5218 59.1914 20.4376 61.7474C23.3534 64.3034 27.0997 65.7111 30.9772 65.7079H38.6728C42.5503 65.7111 46.2966 64.3034 49.2124 61.7474C52.1282 59.1914 54.0145 55.6618 54.5191 51.8173C55.0003 44.1348 55.4837 36.4829 55.8425 28.8048C55.7988 25.6767 53.3312 23.0954 50.2163 22.9642H44.5069C42.5954 22.961 40.7259 22.4034 39.125 21.359C37.5242 20.3145 36.2607 18.828 35.4878 17.0798C35.2876 16.577 34.9414 16.1458 34.4938 15.8417C34.0462 15.5375 33.5177 15.3745 32.9766 15.3735H27.7856C20.2584 15.3735 14.1575 21.5423 14.1575 29.1548C14.1575 36.7454 14.6322 44.2092 15.1309 51.8173Z" fill="url(#paint8_radial_45_552)"/>
<path d="M15.1309 51.8173C15.6355 55.6618 17.5218 59.1914 20.4376 61.7474C23.3534 64.3034 27.0997 65.7111 30.9772 65.7079H38.6728C42.5503 65.7111 46.2966 64.3034 49.2124 61.7474C52.1282 59.1914 54.0145 55.6618 54.5191 51.8173C55.0003 44.1348 55.4837 36.4829 55.8425 28.8048C55.7988 25.6767 53.3312 23.0954 50.2163 22.9642H44.5069C42.5954 22.961 40.7259 22.4034 39.125 21.359C37.5242 20.3145 36.2607 18.828 35.4878 17.0798C35.2876 16.577 34.9414 16.1458 34.4938 15.8417C34.0462 15.5375 33.5177 15.3745 32.9766 15.3735H27.7856C20.2584 15.3735 14.1575 21.5423 14.1575 29.1548C14.1575 36.7454 14.6322 44.2092 15.1309 51.8173Z" fill="url(#paint9_radial_45_552)"/>
<g filter="url(#filter1_f_45_552)">
<path d="M33.1713 38.4036L30.7628 45.9002C30.3494 47.4445 31.3381 48.9845 32.7381 48.9845H35.7219C37.1219 48.9845 38.1084 47.4205 37.6972 45.9002L35.6803 38.4036C35.2472 36.7411 33.6241 36.7411 33.1713 38.4036Z" fill="#D69790"/>
</g>
<g filter="url(#filter2_f_45_552)">
<path d="M33.25 37.6248L31.0822 45.1236C30.6403 46.6658 31.7013 48.2079 33.2041 48.2079H36.4109C37.9159 48.2079 38.9769 46.6417 38.535 45.1236L36.3694 37.627C35.9034 35.9645 33.7356 35.9623 33.25 37.6248Z" fill="#F6BFAB"/>
<path d="M33.25 37.6248L31.0822 45.1236C30.6403 46.6658 31.7013 48.2079 33.2041 48.2079H36.4109C37.9159 48.2079 38.9769 46.6417 38.535 45.1236L36.3694 37.627C35.9034 35.9645 33.7356 35.9623 33.25 37.6248Z" fill="url(#paint10_linear_45_552)"/>
<path d="M33.25 37.6248L31.0822 45.1236C30.6403 46.6658 31.7013 48.2079 33.2041 48.2079H36.4109C37.9159 48.2079 38.9769 46.6417 38.535 45.1236L36.3694 37.627C35.9034 35.9645 33.7356 35.9623 33.25 37.6248Z" fill="url(#paint11_radial_45_552)"/>
<path d="M33.25 37.6248L31.0822 45.1236C30.6403 46.6658 31.7013 48.2079 33.2041 48.2079H36.4109C37.9159 48.2079 38.9769 46.6417 38.535 45.1236L36.3694 37.627C35.9034 35.9645 33.7356 35.9623 33.25 37.6248Z" fill="url(#paint12_linear_45_552)"/>
<path d="M33.25 37.6248L31.0822 45.1236C30.6403 46.6658 31.7013 48.2079 33.2041 48.2079H36.4109C37.9159 48.2079 38.9769 46.6417 38.535 45.1236L36.3694 37.627C35.9034 35.9645 33.7356 35.9623 33.25 37.6248Z" fill="url(#paint13_radial_45_552)"/>
<path d="M33.25 37.6248L31.0822 45.1236C30.6403 46.6658 31.7013 48.2079 33.2041 48.2079H36.4109C37.9159 48.2079 38.9769 46.6417 38.535 45.1236L36.3694 37.627C35.9034 35.9645 33.7356 35.9623 33.25 37.6248Z" fill="url(#paint14_linear_45_552)"/>
</g>
<g filter="url(#filter3_f_45_552)">
<path d="M29.2337 50.8701C29.0811 50.7901 28.9064 50.7624 28.7365 50.7913C28.5666 50.8201 28.4108 50.9039 28.2931 51.0298C28.1721 51.1504 28.0978 51.31 28.0834 51.4802C28.0689 51.6504 28.1154 51.8202 28.2144 51.9595C28.9363 53.046 29.9165 53.9365 31.0671 54.5512C32.2178 55.1658 33.503 55.4854 34.8075 55.4813C36.1124 55.4858 37.398 55.1664 38.5491 54.5517C39.7001 53.937 40.6807 53.0463 41.4028 51.9595C41.5016 51.8188 41.5476 51.6478 41.5328 51.4766C41.518 51.3054 41.4433 51.1448 41.3219 51.0232C41.2035 50.8997 41.0481 50.818 40.8793 50.7904C40.7104 50.7628 40.5372 50.7907 40.3856 50.8701C38.6603 51.7524 36.7452 52.2049 34.8075 52.1891C32.7644 52.1891 30.8437 51.7101 29.2337 50.8701Z" stroke="url(#paint15_linear_45_552)" stroke-width="0.15"/>
</g>
<path d="M34.8075 52.3534C32.844 52.3663 30.9062 51.9071 29.1572 51.0146C28.5994 50.7303 27.9978 51.3603 28.35 51.8678C29.0569 52.9322 30.0169 53.8045 31.1439 54.4066C32.271 55.0086 33.5298 55.3216 34.8075 55.3175C36.0853 55.3216 37.3441 55.0086 38.4711 54.4066C39.5981 53.8045 40.5581 52.9322 41.265 51.8678C41.6172 51.3384 41.0178 50.7303 40.4578 51.0146C38.7097 51.9095 36.7713 52.3688 34.8075 52.3534Z" fill="url(#paint16_radial_45_552)"/>
<g filter="url(#filter4_ii_45_552)">
<path d="M54.6086 13.4486C56.7064 14.1705 58.5898 15.6361 59.7776 17.7361C60.6851 19.3193 61.126 21.127 61.0493 22.9503C60.9727 24.7735 60.3816 26.5378 59.3445 28.0393C58.6286 29.0908 58.2446 30.3328 58.242 31.6049V36.4502C57.4207 35.9006 56.4939 35.5281 55.5208 35.3564L55.8401 28.8049C55.7964 25.6768 53.3311 23.0955 50.2183 22.9643H44.5067C42.5952 22.9611 40.7257 22.4035 39.1249 21.3591C37.524 20.3146 36.2605 18.8281 35.4876 17.0799C35.2874 16.5771 34.9412 16.1459 34.4936 15.8418C34.046 15.5376 33.5175 15.3746 32.9764 15.3736H27.7854C20.2583 15.3736 14.1573 21.5424 14.1573 29.1549L14.2842 35.4243C13.2473 35.5774 12.1645 35.923 11.3464 36.5005V31.6049C11.3464 30.3361 10.957 29.0893 10.2439 28.0393C9.25571 26.5839 8.67968 24.8884 8.57685 23.1323C8.47403 21.3762 8.84824 19.625 9.65982 18.0643C10.7802 15.9172 12.6738 14.2753 14.9579 13.4705C17.2993 12.6457 19.2904 11.0488 20.6039 8.94238C21.4537 7.57264 22.6386 6.44209 24.0468 5.65747C25.4549 4.87284 27.0397 4.46003 28.6517 4.45801C29.9708 4.45801 31.2242 4.74238 32.3923 5.22363C33.9498 5.90176 35.702 5.90176 37.2595 5.22363C38.4364 4.72297 39.7015 4.46266 40.9804 4.45801C44.4192 4.45801 47.427 6.31738 49.0917 9.07363C50.3473 11.1518 52.3161 12.6611 54.6086 13.4486Z" fill="url(#paint17_linear_45_552)"/>
<path d="M54.6086 13.4486C56.7064 14.1705 58.5898 15.6361 59.7776 17.7361C60.6851 19.3193 61.126 21.127 61.0493 22.9503C60.9727 24.7735 60.3816 26.5378 59.3445 28.0393C58.6286 29.0908 58.2446 30.3328 58.242 31.6049V36.4502C57.4207 35.9006 56.4939 35.5281 55.5208 35.3564L55.8401 28.8049C55.7964 25.6768 53.3311 23.0955 50.2183 22.9643H44.5067C42.5952 22.9611 40.7257 22.4035 39.1249 21.3591C37.524 20.3146 36.2605 18.8281 35.4876 17.0799C35.2874 16.5771 34.9412 16.1459 34.4936 15.8418C34.046 15.5376 33.5175 15.3746 32.9764 15.3736H27.7854C20.2583 15.3736 14.1573 21.5424 14.1573 29.1549L14.2842 35.4243C13.2473 35.5774 12.1645 35.923 11.3464 36.5005V31.6049C11.3464 30.3361 10.957 29.0893 10.2439 28.0393C9.25571 26.5839 8.67968 24.8884 8.57685 23.1323C8.47403 21.3762 8.84824 19.625 9.65982 18.0643C10.7802 15.9172 12.6738 14.2753 14.9579 13.4705C17.2993 12.6457 19.2904 11.0488 20.6039 8.94238C21.4537 7.57264 22.6386 6.44209 24.0468 5.65747C25.4549 4.87284 27.0397 4.46003 28.6517 4.45801C29.9708 4.45801 31.2242 4.74238 32.3923 5.22363C33.9498 5.90176 35.702 5.90176 37.2595 5.22363C38.4364 4.72297 39.7015 4.46266 40.9804 4.45801C44.4192 4.45801 47.427 6.31738 49.0917 9.07363C50.3473 11.1518 52.3161 12.6611 54.6086 13.4486Z" fill="url(#paint18_radial_45_552)"/>
<path d="M54.6086 13.4486C56.7064 14.1705 58.5898 15.6361 59.7776 17.7361C60.6851 19.3193 61.126 21.127 61.0493 22.9503C60.9727 24.7735 60.3816 26.5378 59.3445 28.0393C58.6286 29.0908 58.2446 30.3328 58.242 31.6049V36.4502C57.4207 35.9006 56.4939 35.5281 55.5208 35.3564L55.8401 28.8049C55.7964 25.6768 53.3311 23.0955 50.2183 22.9643H44.5067C42.5952 22.9611 40.7257 22.4035 39.1249 21.3591C37.524 20.3146 36.2605 18.8281 35.4876 17.0799C35.2874 16.5771 34.9412 16.1459 34.4936 15.8418C34.046 15.5376 33.5175 15.3746 32.9764 15.3736H27.7854C20.2583 15.3736 14.1573 21.5424 14.1573 29.1549L14.2842 35.4243C13.2473 35.5774 12.1645 35.923 11.3464 36.5005V31.6049C11.3464 30.3361 10.957 29.0893 10.2439 28.0393C9.25571 26.5839 8.67968 24.8884 8.57685 23.1323C8.47403 21.3762 8.84824 19.625 9.65982 18.0643C10.7802 15.9172 12.6738 14.2753 14.9579 13.4705C17.2993 12.6457 19.2904 11.0488 20.6039 8.94238C21.4537 7.57264 22.6386 6.44209 24.0468 5.65747C25.4549 4.87284 27.0397 4.46003 28.6517 4.45801C29.9708 4.45801 31.2242 4.74238 32.3923 5.22363C33.9498 5.90176 35.702 5.90176 37.2595 5.22363C38.4364 4.72297 39.7015 4.46266 40.9804 4.45801C44.4192 4.45801 47.427 6.31738 49.0917 9.07363C50.3473 11.1518 52.3161 12.6611 54.6086 13.4486Z" fill="url(#paint19_radial_45_552)"/>
<path d="M54.6086 13.4486C56.7064 14.1705 58.5898 15.6361 59.7776 17.7361C60.6851 19.3193 61.126 21.127 61.0493 22.9503C60.9727 24.7735 60.3816 26.5378 59.3445 28.0393C58.6286 29.0908 58.2446 30.3328 58.242 31.6049V36.4502C57.4207 35.9006 56.4939 35.5281 55.5208 35.3564L55.8401 28.8049C55.7964 25.6768 53.3311 23.0955 50.2183 22.9643H44.5067C42.5952 22.9611 40.7257 22.4035 39.1249 21.3591C37.524 20.3146 36.2605 18.8281 35.4876 17.0799C35.2874 16.5771 34.9412 16.1459 34.4936 15.8418C34.046 15.5376 33.5175 15.3746 32.9764 15.3736H27.7854C20.2583 15.3736 14.1573 21.5424 14.1573 29.1549L14.2842 35.4243C13.2473 35.5774 12.1645 35.923 11.3464 36.5005V31.6049C11.3464 30.3361 10.957 29.0893 10.2439 28.0393C9.25571 26.5839 8.67968 24.8884 8.57685 23.1323C8.47403 21.3762 8.84824 19.625 9.65982 18.0643C10.7802 15.9172 12.6738 14.2753 14.9579 13.4705C17.2993 12.6457 19.2904 11.0488 20.6039 8.94238C21.4537 7.57264 22.6386 6.44209 24.0468 5.65747C25.4549 4.87284 27.0397 4.46003 28.6517 4.45801C29.9708 4.45801 31.2242 4.74238 32.3923 5.22363C33.9498 5.90176 35.702 5.90176 37.2595 5.22363C38.4364 4.72297 39.7015 4.46266 40.9804 4.45801C44.4192 4.45801 47.427 6.31738 49.0917 9.07363C50.3473 11.1518 52.3161 12.6611 54.6086 13.4486Z" fill="url(#paint20_radial_45_552)"/>
<path d="M54.6086 13.4486C56.7064 14.1705 58.5898 15.6361 59.7776 17.7361C60.6851 19.3193 61.126 21.127 61.0493 22.9503C60.9727 24.7735 60.3816 26.5378 59.3445 28.0393C58.6286 29.0908 58.2446 30.3328 58.242 31.6049V36.4502C57.4207 35.9006 56.4939 35.5281 55.5208 35.3564L55.8401 28.8049C55.7964 25.6768 53.3311 23.0955 50.2183 22.9643H44.5067C42.5952 22.9611 40.7257 22.4035 39.1249 21.3591C37.524 20.3146 36.2605 18.8281 35.4876 17.0799C35.2874 16.5771 34.9412 16.1459 34.4936 15.8418C34.046 15.5376 33.5175 15.3746 32.9764 15.3736H27.7854C20.2583 15.3736 14.1573 21.5424 14.1573 29.1549L14.2842 35.4243C13.2473 35.5774 12.1645 35.923 11.3464 36.5005V31.6049C11.3464 30.3361 10.957 29.0893 10.2439 28.0393C9.25571 26.5839 8.67968 24.8884 8.57685 23.1323C8.47403 21.3762 8.84824 19.625 9.65982 18.0643C10.7802 15.9172 12.6738 14.2753 14.9579 13.4705C17.2993 12.6457 19.2904 11.0488 20.6039 8.94238C21.4537 7.57264 22.6386 6.44209 24.0468 5.65747C25.4549 4.87284 27.0397 4.46003 28.6517 4.45801C29.9708 4.45801 31.2242 4.74238 32.3923 5.22363C33.9498 5.90176 35.702 5.90176 37.2595 5.22363C38.4364 4.72297 39.7015 4.46266 40.9804 4.45801C44.4192 4.45801 47.427 6.31738 49.0917 9.07363C50.3473 11.1518 52.3161 12.6611 54.6086 13.4486Z" fill="url(#paint21_radial_45_552)"/>
</g>
<g filter="url(#filter5_i_45_552)">
<path d="M50.0325 28.3871C49.3172 27.7659 48.4881 27.1074 47.2281 26.7093C45.9878 26.3199 44.4347 26.2149 42.2844 26.4774C41.9865 26.5137 41.7152 26.6668 41.5301 26.9031C41.3451 27.1394 41.2616 27.4395 41.2978 27.7374C41.3341 28.0353 41.4872 28.3066 41.7235 28.4917C41.9598 28.6767 42.2599 28.7602 42.5578 28.724C44.52 28.4834 45.7231 28.608 46.55 28.8684C47.3594 29.1221 47.9063 29.5355 48.5472 30.0934C48.6592 30.1909 48.7894 30.2654 48.9302 30.3126C49.071 30.3599 49.2198 30.3789 49.368 30.3686C49.5161 30.3584 49.6609 30.319 49.7938 30.2528C49.9268 30.1867 50.0454 30.0949 50.143 29.9829C50.2405 29.8709 50.315 29.7407 50.3622 29.5999C50.4095 29.4591 50.4285 29.3103 50.4182 29.1621C50.408 29.0139 50.3686 28.8692 50.3024 28.7363C50.2363 28.6033 50.1445 28.4846 50.0325 28.3871Z" fill="#202020"/>
</g>
<g filter="url(#filter6_i_45_552)">
<path d="M20.8972 27.943C23.0367 26.6907 25.5284 26.1757 27.989 26.4774C28.287 26.5137 28.5583 26.6668 28.7433 26.9031C28.9283 27.1394 29.0119 27.4395 28.9756 27.7374C28.9393 28.0353 28.7862 28.3066 28.5499 28.4916C28.3136 28.6766 28.0135 28.7602 27.7156 28.724C25.754 28.4823 23.7672 28.8895 22.0587 29.8833C21.9316 29.9601 21.8075 30.0418 21.6869 30.1283L21.6737 30.1371C21.4364 30.3207 21.1359 30.4025 20.8383 30.3646C20.5407 30.3266 20.2703 30.172 20.0867 29.9347C19.9031 29.6974 19.8212 29.3969 19.8592 29.0993C19.8971 28.8017 20.0518 28.5313 20.289 28.3477L20.8972 27.943Z" fill="#202020"/>
</g>
<g filter="url(#filter7_if_45_552)">
<path d="M35.7569 17.6376C35.6615 17.4545 35.5718 17.2685 35.4878 17.0798C35.2876 16.5771 34.9414 16.1458 34.4938 15.8417C34.0462 15.5376 33.5177 15.3745 32.9765 15.3736H27.7856C20.2584 15.3736 14.1575 21.5423 14.1575 29.1548V30.277C12.7728 29.2226 11.0294 26.9958 11.0294 23.3929C11.0294 19.0223 14.2165 16.8129 16.2487 15.402C16.824 15.0061 17.3053 14.6714 17.5984 14.3695C17.7351 14.2283 17.8707 14.0861 18.0053 13.9429C19.4315 12.4314 21.9712 9.73638 26.4053 8.5595C29.2469 7.80482 32.1365 7.79825 34.0856 7.97107C35.1159 8.06513 35.8422 8.95763 35.8422 9.99232V17.5829L35.7547 17.6376H35.7569Z" fill="#23181C"/>
<path d="M35.7569 17.6376C35.6615 17.4545 35.5718 17.2685 35.4878 17.0798C35.2876 16.5771 34.9414 16.1458 34.4938 15.8417C34.0462 15.5376 33.5177 15.3745 32.9765 15.3736H27.7856C20.2584 15.3736 14.1575 21.5423 14.1575 29.1548V30.277C12.7728 29.2226 11.0294 26.9958 11.0294 23.3929C11.0294 19.0223 14.2165 16.8129 16.2487 15.402C16.824 15.0061 17.3053 14.6714 17.5984 14.3695C17.7351 14.2283 17.8707 14.0861 18.0053 13.9429C19.4315 12.4314 21.9712 9.73638 26.4053 8.5595C29.2469 7.80482 32.1365 7.79825 34.0856 7.97107C35.1159 8.06513 35.8422 8.95763 35.8422 9.99232V17.5829L35.7547 17.6376H35.7569Z" fill="url(#paint22_radial_45_552)"/>
<path d="M35.7569 17.6376C35.6615 17.4545 35.5718 17.2685 35.4878 17.0798C35.2876 16.5771 34.9414 16.1458 34.4938 15.8417C34.0462 15.5376 33.5177 15.3745 32.9765 15.3736H27.7856C20.2584 15.3736 14.1575 21.5423 14.1575 29.1548V30.277C12.7728 29.2226 11.0294 26.9958 11.0294 23.3929C11.0294 19.0223 14.2165 16.8129 16.2487 15.402C16.824 15.0061 17.3053 14.6714 17.5984 14.3695C17.7351 14.2283 17.8707 14.0861 18.0053 13.9429C19.4315 12.4314 21.9712 9.73638 26.4053 8.5595C29.2469 7.80482 32.1365 7.79825 34.0856 7.97107C35.1159 8.06513 35.8422 8.95763 35.8422 9.99232V17.5829L35.7547 17.6376H35.7569Z" fill="url(#paint23_radial_45_552)"/>
</g>
<g filter="url(#filter8_f_45_552)">
<path d="M56.0656 30.9617L55.9497 28.387C55.9059 25.272 53.3313 22.7039 50.2184 22.5727H44.5069C42.735 22.5723 40.9959 22.0953 39.4718 21.1916C37.9477 20.2879 36.6948 18.9909 35.8444 17.4364C35.8444 17.4364 35.0087 15.5005 34.825 12.6677C34.6828 10.4802 36.6625 8.90955 38.8391 9.19611C43.3584 9.79548 49.6322 11.2064 53.9437 14.0174C61.0575 18.6592 59.8128 27.022 56.0656 30.9617Z" fill="#1F151B"/>
<path d="M56.0656 30.9617L55.9497 28.387C55.9059 25.272 53.3313 22.7039 50.2184 22.5727H44.5069C42.735 22.5723 40.9959 22.0953 39.4718 21.1916C37.9477 20.2879 36.6948 18.9909 35.8444 17.4364C35.8444 17.4364 35.0087 15.5005 34.825 12.6677C34.6828 10.4802 36.6625 8.90955 38.8391 9.19611C43.3584 9.79548 49.6322 11.2064 53.9437 14.0174C61.0575 18.6592 59.8128 27.022 56.0656 30.9617Z" fill="url(#paint24_radial_45_552)"/>
<path d="M56.0656 30.9617L55.9497 28.387C55.9059 25.272 53.3313 22.7039 50.2184 22.5727H44.5069C42.735 22.5723 40.9959 22.0953 39.4718 21.1916C37.9477 20.2879 36.6948 18.9909 35.8444 17.4364C35.8444 17.4364 35.0087 15.5005 34.825 12.6677C34.6828 10.4802 36.6625 8.90955 38.8391 9.19611C43.3584 9.79548 49.6322 11.2064 53.9437 14.0174C61.0575 18.6592 59.8128 27.022 56.0656 30.9617Z" fill="url(#paint25_radial_45_552)"/>
<path d="M56.0656 30.9617L55.9497 28.387C55.9059 25.272 53.3313 22.7039 50.2184 22.5727H44.5069C42.735 22.5723 40.9959 22.0953 39.4718 21.1916C37.9477 20.2879 36.6948 18.9909 35.8444 17.4364C35.8444 17.4364 35.0087 15.5005 34.825 12.6677C34.6828 10.4802 36.6625 8.90955 38.8391 9.19611C43.3584 9.79548 49.6322 11.2064 53.9437 14.0174C61.0575 18.6592 59.8128 27.022 56.0656 30.9617Z" fill="url(#paint26_radial_45_552)"/>
</g>
<path d="M44.5594 33.7507C47.2237 33.7507 49.4725 35.5882 50.085 38.0689C50.1264 38.2343 50.1294 38.4069 50.0937 38.5736C50.0581 38.7404 49.9848 38.8967 49.8795 39.0308C49.7742 39.1649 49.6396 39.273 49.486 39.3471C49.3324 39.4211 49.1639 39.459 48.9934 39.4579H39.8934C39.7556 39.4579 39.6196 39.4276 39.4948 39.3692C39.37 39.3108 39.2595 39.2257 39.1713 39.1199C39.083 39.0141 39.0191 38.8902 38.984 38.757C38.9489 38.6237 38.9434 38.4844 38.9681 38.3489C39.2235 37.0535 39.9205 35.887 40.9402 35.0484C41.9599 34.2098 43.2391 33.7511 44.5594 33.7507Z" fill="white"/>
<path d="M43.7172 34.8577C44.2767 34.8584 44.8286 34.988 45.3299 35.2366C45.8312 35.4852 46.2684 35.846 46.6076 36.291C46.9468 36.7361 47.1789 37.2533 47.2857 37.8025C47.3926 38.3518 47.3714 38.9183 47.2238 39.458H40.1909C40.1056 39.1449 40.0615 38.8221 40.0597 38.4977C40.0632 37.5303 40.4502 36.6038 41.1358 35.9215C41.8215 35.2391 42.7498 34.8565 43.7172 34.8577Z" fill="url(#paint27_radial_45_552)"/>
<path d="M41.6325 38.5C41.6314 38.2258 41.6845 37.9541 41.7888 37.7005C41.8931 37.4469 42.0466 37.2165 42.2404 37.0225C42.4342 36.8285 42.6644 36.6748 42.9179 36.5702C43.1714 36.4656 43.443 36.4122 43.7172 36.4131C44.8744 36.4131 45.7997 37.3406 45.7997 38.4978C45.8016 38.832 45.722 39.1616 45.5678 39.4581H41.8797C41.7131 39.1658 41.6278 38.8364 41.6325 38.5Z" fill="black"/>
<g filter="url(#filter9_f_45_552)">
<path d="M43.4481 35.6277C43.7084 35.9755 43.1637 36.3977 42.5512 36.8593C41.9322 37.3187 41.475 37.6424 41.2169 37.2968C40.9565 36.949 41.2475 36.2949 41.8622 35.8334C42.479 35.374 43.19 35.2799 43.4481 35.6277Z" fill="#C7A7A3"/>
<path d="M43.4481 35.6277C43.7084 35.9755 43.1637 36.3977 42.5512 36.8593C41.9322 37.3187 41.475 37.6424 41.2169 37.2968C40.9565 36.949 41.2475 36.2949 41.8622 35.8334C42.479 35.374 43.19 35.2799 43.4481 35.6277Z" fill="url(#paint28_radial_45_552)"/>
</g>
<g filter="url(#filter10_f_45_552)">
<path d="M46.9569 38.0187C46.8497 37.3061 46.5205 36.6455 46.0163 36.1309L44.9553 37.2946L45.4322 38.2265L46.9569 38.0187Z" fill="url(#paint29_linear_45_552)"/>
</g>
<path d="M25.0578 33.7485C22.3934 33.7485 20.1425 35.586 19.5322 38.0688C19.4908 38.2342 19.4878 38.4069 19.5234 38.5736C19.5591 38.7404 19.6323 38.8967 19.7377 39.0308C19.843 39.1648 19.9776 39.273 20.1312 39.3471C20.2848 39.4211 20.4533 39.459 20.6238 39.4579H29.7238C29.8615 39.4579 29.9976 39.4276 30.1224 39.3692C30.2472 39.3108 30.3576 39.2257 30.4459 39.1199C30.5342 39.0141 30.5981 38.8902 30.6332 38.757C30.6683 38.6237 30.6737 38.4844 30.6491 38.3488C30.3914 37.0546 29.6937 35.8895 28.6745 35.0513C27.6553 34.2132 26.3774 33.7514 25.0578 33.7485Z" fill="white"/>
<path d="M25.9 34.8577C25.3404 34.8584 24.7886 34.988 24.2873 35.2366C23.786 35.4852 23.3488 35.846 23.0096 36.291C22.6704 36.736 22.4383 37.2533 22.3315 37.8025C22.2246 38.3518 22.2458 38.9183 22.3934 39.458H29.4241C29.5072 39.143 29.5575 38.828 29.5575 38.4977C29.5511 37.5316 29.1635 36.6071 28.4789 35.9254C27.7944 35.2437 26.8661 34.86 25.9 34.8577Z" fill="url(#paint30_radial_45_552)"/>
<path d="M27.9847 38.5C27.9861 38.2259 27.9333 37.9542 27.8292 37.7007C27.7251 37.4471 27.5718 37.2167 27.3782 37.0227C27.1846 36.8286 26.9545 36.6749 26.7012 36.5703C26.4478 36.4657 26.1763 36.4122 25.9022 36.4131C25.628 36.4119 25.3563 36.4651 25.1027 36.5694C24.8491 36.6737 24.6187 36.8272 24.4247 37.021C24.2308 37.2148 24.077 37.445 23.9724 37.6985C23.8679 37.9519 23.8144 38.2236 23.8153 38.4978C23.8153 38.8478 23.8984 39.1759 24.0472 39.4581H27.7375C27.8973 39.163 27.9829 38.8334 27.9869 38.4978L27.9847 38.5Z" fill="black"/>
<g filter="url(#filter11_f_45_552)">
<path d="M29.225 38.0712C29.225 36.8944 28.2691 36.1112 28.0109 35.8728L26.8362 37.0103L27.5581 38.4847L29.2272 38.0691L29.225 38.0712Z" fill="url(#paint31_linear_45_552)"/>
</g>
<g filter="url(#filter12_f_45_552)">
<path d="M25.1787 37.1245C25.9538 36.7139 26.4134 36.0626 26.2052 35.6697C25.9971 35.2768 25.2001 35.2912 24.425 35.7018C23.65 36.1124 23.1904 36.7638 23.3985 37.1567C23.6067 37.5495 24.4037 37.5351 25.1787 37.1245Z" fill="#C7A7A3" fill-opacity="0.9"/>
<path d="M25.1787 37.1245C25.9538 36.7139 26.4134 36.0626 26.2052 35.6697C25.9971 35.2768 25.2001 35.2912 24.425 35.7018C23.65 36.1124 23.1904 36.7638 23.3985 37.1567C23.6067 37.5495 24.4037 37.5351 25.1787 37.1245Z" fill="url(#paint32_radial_45_552)"/>
</g>
<path d="M54.8822 46.0095C55.1512 41.6695 55.4072 37.3339 55.6347 32.9939C57.2199 33.2715 58.6479 34.122 59.6471 35.3836C60.6463 36.6453 61.147 38.2301 61.0541 39.8368C60.9612 41.4435 60.2812 42.96 59.1433 44.0981C58.0053 45.2362 56.4889 45.9164 54.8822 46.0095Z" fill="url(#paint33_linear_45_552)"/>
<path d="M54.8822 46.0095C55.1512 41.6695 55.4072 37.3339 55.6347 32.9939C57.2199 33.2715 58.6479 34.122 59.6471 35.3836C60.6463 36.6453 61.147 38.2301 61.0541 39.8368C60.9612 41.4435 60.2812 42.96 59.1433 44.0981C58.0053 45.2362 56.4889 45.9164 54.8822 46.0095Z" fill="url(#paint34_radial_45_552)"/>
<path d="M54.8822 46.0095C55.1512 41.6695 55.4072 37.3339 55.6347 32.9939C57.2199 33.2715 58.6479 34.122 59.6471 35.3836C60.6463 36.6453 61.147 38.2301 61.0541 39.8368C60.9612 41.4435 60.2812 42.96 59.1433 44.0981C58.0053 45.2362 56.4889 45.9164 54.8822 46.0095Z" fill="url(#paint35_radial_45_552)"/>
<path d="M54.8822 46.0095C55.1512 41.6695 55.4072 37.3339 55.6347 32.9939C57.2199 33.2715 58.6479 34.122 59.6471 35.3836C60.6463 36.6453 61.147 38.2301 61.0541 39.8368C60.9612 41.4435 60.2812 42.96 59.1433 44.0981C58.0053 45.2362 56.4889 45.9164 54.8822 46.0095Z" fill="url(#paint36_radial_45_552)"/>
<path d="M14.2362 32.9568C11.0491 33.4074 8.5575 36.1462 8.5575 39.458C8.55778 41.1362 9.20097 42.7505 10.3548 43.9691C11.5087 45.1876 13.0856 45.9179 14.7612 46.0096C14.4987 41.6521 14.3194 37.3165 14.2362 32.9568Z" fill="url(#paint37_linear_45_552)"/>
<path d="M14.2362 32.9568C11.0491 33.4074 8.5575 36.1462 8.5575 39.458C8.55778 41.1362 9.20097 42.7505 10.3548 43.9691C11.5087 45.1876 13.0856 45.9179 14.7612 46.0096C14.4987 41.6521 14.3194 37.3165 14.2362 32.9568Z" fill="url(#paint38_radial_45_552)"/>
<g filter="url(#filter13_f_45_552)">
<path d="M14.0678 35.6541C13.1778 35.8572 12.3874 36.3662 11.8343 37.0924C11.2811 37.8186 11.0004 38.7159 11.041 39.6279C11.0816 40.5398 11.441 41.4086 12.0565 42.0827C12.672 42.7569 13.5046 43.1936 14.4091 43.3169C14.2669 40.7619 14.1466 38.2091 14.0678 35.6541Z" fill="url(#paint39_radial_45_552)"/>
</g>
<g filter="url(#filter14_f_45_552)">
<path d="M55.2234 43.3823C55.3809 40.7945 55.534 38.2089 55.6762 35.6211C56.6567 35.7445 57.5536 36.2358 58.1854 36.9956C58.8173 37.7554 59.1367 38.727 59.0792 39.7135C59.0216 40.7 58.5913 41.6277 57.8754 42.3089C57.1596 42.9901 56.2116 43.3738 55.2234 43.3823Z" fill="url(#paint40_linear_45_552)"/>
</g>
<g filter="url(#filter15_f_45_552)">
<path d="M21.0503 29.0849C22.1003 28.3324 24.7122 27.0089 27.8009 27.5296" stroke="#353535" stroke-width="0.25" stroke-linecap="round"/>
</g>
<g filter="url(#filter16_f_45_552)">
<path d="M49.3325 28.8967C48.2825 28.1442 45.6706 26.8207 42.5819 27.3413" stroke="#353535" stroke-width="0.25" stroke-linecap="round"/>
</g>
<defs>
<filter id="filter0_ii_45_552" x="14.1575" y="15.3735" width="42.685" height="50.5345" filterUnits="userSpaceOnUse" color-interpolation-filters="sRGB">
<feFlood flood-opacity="0" result="BackgroundImageFix"/>
<feBlend mode="normal" in="SourceGraphic" in2="BackgroundImageFix" result="shape"/>
<feColorMatrix in="SourceAlpha" type="matrix" values="0 0 0 0 0 0 0 0 0 0 0 0 0 0 0 0 0 0 127 0" result="hardAlpha"/>
<feOffset dx="1"/>
<feGaussianBlur stdDeviation="0.7"/>
<feComposite in2="hardAlpha" operator="arithmetic" k2="-1" k3="1"/>
<feColorMatrix type="matrix" values="0 0 0 0 0.913725 0 0 0 0 0.686275 0 0 0 0 0.592157 0 0 0 1 0"/>
<feBlend mode="normal" in2="shape" result="effect1_innerShadow_45_552"/>
<feColorMatrix in="SourceAlpha" type="matrix" values="0 0 0 0 0 0 0 0 0 0 0 0 0 0 0 0 0 0 127 0" result="hardAlpha"/>
<feOffset dy="0.2"/>
<feGaussianBlur stdDeviation="0.375"/>
<feComposite in2="hardAlpha" operator="arithmetic" k2="-1" k3="1"/>
<feColorMatrix type="matrix" values="0 0 0 0 0.780392 0 0 0 0 0.568627 0 0 0 0 0.486275 0 0 0 1 0"/>
<feBlend mode="normal" in2="effect1_innerShadow_45_552" result="effect2_innerShadow_45_552"/>
</filter>
<filter id="filter1_f_45_552" x="29.6679" y="36.1567" width="9.12341" height="13.8279" filterUnits="userSpaceOnUse" color-interpolation-filters="sRGB">
<feFlood flood-opacity="0" result="BackgroundImageFix"/>
<feBlend mode="normal" in="SourceGraphic" in2="BackgroundImageFix" result="shape"/>
<feGaussianBlur stdDeviation="0.5" result="effect1_foregroundBlur_45_552"/>
</filter>
<filter id="filter2_f_45_552" x="30.7811" y="36.1792" width="8.05503" height="12.2289" filterUnits="userSpaceOnUse" color-interpolation-filters="sRGB">
<feFlood flood-opacity="0" result="BackgroundImageFix"/>
<feBlend mode="normal" in="SourceGraphic" in2="BackgroundImageFix" result="shape"/>
<feGaussianBlur stdDeviation="0.1" result="effect1_foregroundBlur_45_552"/>
</filter>
<filter id="filter3_f_45_552" x="27.9058" y="50.6051" width="13.8048" height="5.05132" filterUnits="userSpaceOnUse" color-interpolation-filters="sRGB">
<feFlood flood-opacity="0" result="BackgroundImageFix"/>
<feBlend mode="normal" in="SourceGraphic" in2="BackgroundImageFix" result="shape"/>
<feGaussianBlur stdDeviation="0.05" result="effect1_foregroundBlur_45_552"/>
</filter>
<filter id="filter4_ii_45_552" x="8.56018" y="3.95801" width="52.4977" height="32.5425" filterUnits="userSpaceOnUse" color-interpolation-filters="sRGB">
<feFlood flood-opacity="0" result="BackgroundImageFix"/>
<feBlend mode="normal" in="SourceGraphic" in2="BackgroundImageFix" result="shape"/>
<feColorMatrix in="SourceAlpha" type="matrix" values="0 0 0 0 0 0 0 0 0 0 0 0 0 0 0 0 0 0 127 0" result="hardAlpha"/>
<feOffset dy="-0.5"/>
<feGaussianBlur stdDeviation="0.625"/>
<feComposite in2="hardAlpha" operator="arithmetic" k2="-1" k3="1"/>
<feColorMatrix type="matrix" values="0 0 0 0 0.137255 0 0 0 0 0.0901961 0 0 0 0 0.145098 0 0 0 1 0"/>
<feBlend mode="normal" in2="shape" result="effect1_innerShadow_45_552"/>
<feColorMatrix in="SourceAlpha" type="matrix" values="0 0 0 0 0 0 0 0 0 0 0 0 0 0 0 0 0 0 127 0" result="hardAlpha"/>
<feOffset dy="-0.2"/>
<feGaussianBlur stdDeviation="0.2"/>
<feComposite in2="hardAlpha" operator="arithmetic" k2="-1" k3="1"/>
<feColorMatrix type="matrix" values="0 0 0 0 0.0784314 0 0 0 0 0.0352941 0 0 0 0 0.0470588 0 0 0 1 0"/>
<feBlend mode="normal" in2="effect1_innerShadow_45_552" result="effect2_innerShadow_45_552"/>
</filter>
<filter id="filter5_i_45_552" x="41.2895" y="26.1328" width="9.23141" height="4.23857" filterUnits="userSpaceOnUse" color-interpolation-filters="sRGB">
<feFlood flood-opacity="0" result="BackgroundImageFix"/>
<feBlend mode="normal" in="SourceGraphic" in2="BackgroundImageFix" result="shape"/>
<feColorMatrix in="SourceAlpha" type="matrix" values="0 0 0 0 0 0 0 0 0 0 0 0 0 0 0 0 0 0 127 0" result="hardAlpha"/>
<feOffset dx="0.1" dy="-0.2"/>
<feGaussianBlur stdDeviation="0.125"/>
<feComposite in2="hardAlpha" operator="arithmetic" k2="-1" k3="1"/>
<feColorMatrix type="matrix" values="0 0 0 0 0.0588235 0 0 0 0 0.054902 0 0 0 0 0.0588235 0 0 0 1 0"/>
<feBlend mode="normal" in2="shape" result="effect1_innerShadow_45_552"/>
</filter>
<filter id="filter6_i_45_552" x="19.8501" y="26.1933" width="9.23379" height="4.18047" filterUnits="userSpaceOnUse" color-interpolation-filters="sRGB">
<feFlood flood-opacity="0" result="BackgroundImageFix"/>
<feBlend mode="normal" in="SourceGraphic" in2="BackgroundImageFix" result="shape"/>
<feColorMatrix in="SourceAlpha" type="matrix" values="0 0 0 0 0 0 0 0 0 0 0 0 0 0 0 0 0 0 127 0" result="hardAlpha"/>
<feOffset dx="0.1" dy="-0.2"/>
<feGaussianBlur stdDeviation="0.125"/>
<feComposite in2="hardAlpha" operator="arithmetic" k2="-1" k3="1"/>
<feColorMatrix type="matrix" values="0 0 0 0 0.0588235 0 0 0 0 0.054902 0 0 0 0 0.0588235 0 0 0 1 0"/>
<feBlend mode="normal" in2="shape" result="effect1_innerShadow_45_552"/>
</filter>
<filter id="filter7_if_45_552" x="10.5294" y="7.37891" width="25.8128" height="23.3982" filterUnits="userSpaceOnUse" color-interpolation-filters="sRGB">
<feFlood flood-opacity="0" result="BackgroundImageFix"/>
<feBlend mode="normal" in="SourceGraphic" in2="BackgroundImageFix" result="shape"/>
<feColorMatrix in="SourceAlpha" type="matrix" values="0 0 0 0 0 0 0 0 0 0 0 0 0 0 0 0 0 0 127 0" result="hardAlpha"/>
<feOffset dx="0.4" dy="0.2"/>
<feGaussianBlur stdDeviation="0.2"/>
<feComposite in2="hardAlpha" operator="arithmetic" k2="-1" k3="1"/>
<feColorMatrix type="matrix" values="0 0 0 0 0.286275 0 0 0 0 0.243137 0 0 0 0 0.227451 0 0 0 1 0"/>
<feBlend mode="normal" in2="shape" result="effect1_innerShadow_45_552"/>
<feGaussianBlur stdDeviation="0.25" result="effect2_foregroundBlur_45_552"/>
</filter>
<filter id="filter8_f_45_552" x="34.3178" y="8.66235" width="25.2664" height="22.7993" filterUnits="userSpaceOnUse" color-interpolation-filters="sRGB">
<feFlood flood-opacity="0" result="BackgroundImageFix"/>
<feBlend mode="normal" in="SourceGraphic" in2="BackgroundImageFix" result="shape"/>
<feGaussianBlur stdDeviation="0.25" result="effect1_foregroundBlur_45_552"/>
</filter>
<filter id="filter9_f_45_552" x="41.0214" y="35.3175" width="2.59334" height="2.22417" filterUnits="userSpaceOnUse" color-interpolation-filters="sRGB">
<feFlood flood-opacity="0" result="BackgroundImageFix"/>
<feBlend mode="normal" in="SourceGraphic" in2="BackgroundImageFix" result="shape"/>
<feGaussianBlur stdDeviation="0.05" result="effect1_foregroundBlur_45_552"/>
</filter>
<filter id="filter10_f_45_552" x="44.7553" y="35.9309" width="2.40156" height="2.4957" filterUnits="userSpaceOnUse" color-interpolation-filters="sRGB">
<feFlood flood-opacity="0" result="BackgroundImageFix"/>
<feBlend mode="normal" in="SourceGraphic" in2="BackgroundImageFix" result="shape"/>
<feGaussianBlur stdDeviation="0.1" result="effect1_foregroundBlur_45_552"/>
</filter>
<filter id="filter11_f_45_552" x="26.6362" y="35.6728" width="2.79093" height="3.01182" filterUnits="userSpaceOnUse" color-interpolation-filters="sRGB">
<feFlood flood-opacity="0" result="BackgroundImageFix"/>
<feBlend mode="normal" in="SourceGraphic" in2="BackgroundImageFix" result="shape"/>
<feGaussianBlur stdDeviation="0.1" result="effect1_foregroundBlur_45_552"/>
</filter>
<filter id="filter12_f_45_552" x="23.2484" y="35.2843" width="3.10686" height="2.25786" filterUnits="userSpaceOnUse" color-interpolation-filters="sRGB">
<feFlood flood-opacity="0" result="BackgroundImageFix"/>
<feBlend mode="normal" in="SourceGraphic" in2="BackgroundImageFix" result="shape"/>
<feGaussianBlur stdDeviation="0.05" result="effect1_foregroundBlur_45_552"/>
</filter>
<filter id="filter13_f_45_552" x="10.7872" y="35.4041" width="3.87189" height="8.16284" filterUnits="userSpaceOnUse" color-interpolation-filters="sRGB">
<feFlood flood-opacity="0" result="BackgroundImageFix"/>
<feBlend mode="normal" in="SourceGraphic" in2="BackgroundImageFix" result="shape"/>
<feGaussianBlur stdDeviation="0.125" result="effect1_foregroundBlur_45_552"/>
</filter>
<filter id="filter14_f_45_552" x="54.7234" y="35.1211" width="4.86237" height="8.76123" filterUnits="userSpaceOnUse" color-interpolation-filters="sRGB">
<feFlood flood-opacity="0" result="BackgroundImageFix"/>
<feBlend mode="normal" in="SourceGraphic" in2="BackgroundImageFix" result="shape"/>
<feGaussianBlur stdDeviation="0.25" result="effect1_foregroundBlur_45_552"/>
</filter>
<filter id="filter15_f_45_552" x="20.6753" y="27.0364" width="7.50064" height="2.42358" filterUnits="userSpaceOnUse" color-interpolation-filters="sRGB">
<feFlood flood-opacity="0" result="BackgroundImageFix"/>
<feBlend mode="normal" in="SourceGraphic" in2="BackgroundImageFix" result="shape"/>
<feGaussianBlur stdDeviation="0.125" result="effect1_foregroundBlur_45_552"/>
</filter>
<filter id="filter16_f_45_552" x="42.2068" y="26.8481" width="7.50067" height="2.42358" filterUnits="userSpaceOnUse" color-interpolation-filters="sRGB">
<feFlood flood-opacity="0" result="BackgroundImageFix"/>
<feBlend mode="normal" in="SourceGraphic" in2="BackgroundImageFix" result="shape"/>
<feGaussianBlur stdDeviation="0.125" result="effect1_foregroundBlur_45_552"/>
</filter>
<radialGradient id="paint0_radial_45_552" cx="0" cy="0" r="1" gradientUnits="userSpaceOnUse" gradientTransform="translate(54.1953 44.3799) rotate(69.6569) scale(8.78439 10.4352)">
<stop offset="0.215" stop-color="#313131"/>
<stop offset="1" stop-color="#1A161E"/>
</radialGradient>
<radialGradient id="paint1_radial_45_552" cx="0" cy="0" r="1" gradientUnits="userSpaceOnUse" gradientTransform="translate(10.1062 46.3793) rotate(17.4471) scale(6.31199 19.4729)">
<stop stop-color="#564943"/>
<stop offset="0.746" stop-color="#1E191C"/>
</radialGradient>
<radialGradient id="paint2_radial_45_552" cx="0" cy="0" r="1" gradientUnits="userSpaceOnUse" gradientTransform="translate(46.2591 40.5407) rotate(180) scale(21.3213 37.7171)">
<stop stop-color="#FFDCC0"/>
<stop offset="1" stop-color="#D6A195"/>
</radialGradient>
<linearGradient id="paint3_linear_45_552" x1="55.8403" y1="47.4138" x2="38.0888" y2="47.4138" gradientUnits="userSpaceOnUse">
<stop stop-color="#FFD6BA"/>
<stop offset="1" stop-color="#FFD6BA" stop-opacity="0"/>
</linearGradient>
<radialGradient id="paint4_radial_45_552" cx="0" cy="0" r="1" gradientUnits="userSpaceOnUse" gradientTransform="translate(41.2563 16.4235) rotate(94.4701) scale(52.2318 43.2541)">
<stop offset="0.767" stop-color="#B57997" stop-opacity="0"/>
<stop offset="1" stop-color="#B57997"/>
</radialGradient>
<radialGradient id="paint5_radial_45_552" cx="0" cy="0" r="1" gradientUnits="userSpaceOnUse" gradientTransform="translate(44.7891 35.1857) rotate(-90) scale(4.68344 5.79576)">
<stop offset="0.325" stop-color="#F6B8A8"/>
<stop offset="1" stop-color="#F6B8A8" stop-opacity="0"/>
</radialGradient>
<radialGradient id="paint6_radial_45_552" cx="0" cy="0" r="1" gradientUnits="userSpaceOnUse" gradientTransform="translate(25.4275 35.376) rotate(-89.7941) scale(4.46294 4.85672)">
<stop offset="0.378" stop-color="#D39991"/>
<stop offset="1" stop-color="#D39991" stop-opacity="0"/>
</radialGradient>
<radialGradient id="paint7_radial_45_552" cx="0" cy="0" r="1" gradientUnits="userSpaceOnUse" gradientTransform="translate(48.8086 44.5733) rotate(176.388) scale(34.7189 88.6896)">
<stop offset="0.836" stop-color="#E6AD97" stop-opacity="0"/>
<stop offset="1" stop-color="#E6AD97"/>
</radialGradient>
<radialGradient id="paint8_radial_45_552" cx="0" cy="0" r="1" gradientUnits="userSpaceOnUse" gradientTransform="translate(12.5103 22.9007) rotate(-46.6112) scale(18.3953 6.73399)">
<stop offset="0.428" stop-color="#9F6D5C"/>
<stop offset="1" stop-color="#9F6D5C" stop-opacity="0"/>
</radialGradient>
<radialGradient id="paint9_radial_45_552" cx="0" cy="0" r="1" gradientUnits="userSpaceOnUse" gradientTransform="translate(44.7081 20.2342) rotate(121.159) scale(13.7401 11.3436)">
<stop offset="0.078" stop-color="#F6C3B0"/>
<stop offset="1" stop-color="#F6C3B0" stop-opacity="0"/>
</radialGradient>
<linearGradient id="paint10_linear_45_552" x1="38.2266" y1="43.2926" x2="34.8075" y2="43.4348" gradientUnits="userSpaceOnUse">
<stop offset="0.36" stop-color="#FFDFC7"/>
<stop offset="1" stop-color="#FFDFC7" stop-opacity="0"/>
</linearGradient>
<radialGradient id="paint11_radial_45_552" cx="0" cy="0" r="1" gradientUnits="userSpaceOnUse" gradientTransform="translate(36.7106 46.0904) rotate(90) scale(0.995531 3.12887)">
<stop stop-color="#FFDDC7"/>
<stop offset="1" stop-color="#FFDDC7" stop-opacity="0"/>
</radialGradient>
<linearGradient id="paint12_linear_45_552" x1="34.8075" y1="47.9389" x2="34.8075" y2="46.0423" gradientUnits="userSpaceOnUse">
<stop stop-color="#D89793"/>
<stop offset="1" stop-color="#D89793" stop-opacity="0"/>
</linearGradient>
<radialGradient id="paint13_radial_45_552" cx="0" cy="0" r="1" gradientUnits="userSpaceOnUse" gradientTransform="translate(37.1838 43.7694) rotate(155.369) scale(6.82482 10.9681)">
<stop offset="0.714" stop-color="#D3968C" stop-opacity="0"/>
<stop offset="1" stop-color="#D3968C"/>
</radialGradient>
<linearGradient id="paint14_linear_45_552" x1="34.8075" y1="36.3801" x2="34.8075" y2="39.1364" gradientUnits="userSpaceOnUse">
<stop stop-color="#E8BBA8"/>
<stop offset="1" stop-color="#E8BBA8" stop-opacity="0"/>
</linearGradient>
<linearGradient id="paint15_linear_45_552" x1="29.9075" y1="54.346" x2="31.2069" y2="50.9423" gradientUnits="userSpaceOnUse">
<stop stop-color="#E1ACA6"/>
<stop offset="1" stop-color="#E1ACA6" stop-opacity="0"/>
</linearGradient>
<radialGradient id="paint16_radial_45_552" cx="0" cy="0" r="1" gradientUnits="userSpaceOnUse" gradientTransform="translate(34.8075 54.9762) rotate(-90) scale(2.93945 11.8262)">
<stop stop-color="#88014E"/>
<stop offset="1" stop-color="#86004D"/>
</radialGradient>
<linearGradient id="paint17_linear_45_552" x1="62.7526" y1="17.4452" x2="15.3933" y2="17.4452" gradientUnits="userSpaceOnUse">
<stop stop-color="#443D40"/>
<stop offset="1" stop-color="#272127"/>
</linearGradient>
<radialGradient id="paint18_radial_45_552" cx="0" cy="0" r="1" gradientUnits="userSpaceOnUse" gradientTransform="translate(13.4792 28.7436) rotate(-90) scale(14.2798 36.1119)">
<stop offset="0.536" stop-color="#3E3433"/>
<stop offset="1" stop-color="#3E3433" stop-opacity="0"/>
</radialGradient>
<radialGradient id="paint19_radial_45_552" cx="0" cy="0" r="1" gradientUnits="userSpaceOnUse" gradientTransform="translate(54.6297 34.0876) rotate(-87.401) scale(10.2577 18.1746)">
<stop stop-color="#4F4D4D"/>
<stop offset="1" stop-color="#4F4D4D" stop-opacity="0"/>
</radialGradient>
<radialGradient id="paint20_radial_45_552" cx="0" cy="0" r="1" gradientUnits="userSpaceOnUse" gradientTransform="translate(51.5546 8.49109) rotate(-146.667) scale(11.5145 8.45224)">
<stop stop-color="#5E5A5B"/>
<stop offset="1" stop-color="#5E5A5B" stop-opacity="0"/>
</radialGradient>
<radialGradient id="paint21_radial_45_552" cx="0" cy="0" r="1" gradientUnits="userSpaceOnUse" gradientTransform="translate(31.117 1.99707) rotate(58.4652) scale(7.05792 16.3428)">
<stop offset="0.287" stop-color="#484646"/>
<stop offset="1" stop-color="#484646" stop-opacity="0"/>
</radialGradient>
<radialGradient id="paint22_radial_45_552" cx="0" cy="0" r="1" gradientUnits="userSpaceOnUse" gradientTransform="translate(35.8422 11.2108) rotate(180) scale(8.97708 3.33174)">
<stop stop-color="#423C3F"/>
<stop offset="1" stop-color="#423C3F" stop-opacity="0"/>
</radialGradient>
<radialGradient id="paint23_radial_45_552" cx="0" cy="0" r="1" gradientUnits="userSpaceOnUse" gradientTransform="translate(12.659 27.2889) rotate(-57.7244) scale(24.579 27.2309)">
<stop offset="0.093" stop-color="#0B0306"/>
<stop offset="0.311" stop-color="#1C0C20"/>
<stop offset="1" stop-color="#1C0C20" stop-opacity="0"/>
</radialGradient>
<radialGradient id="paint24_radial_45_552" cx="0" cy="0" r="1" gradientUnits="userSpaceOnUse" gradientTransform="translate(48.7309 14.3783) scale(12.4733 4.87686)">
<stop stop-color="#4E494B"/>
<stop offset="1" stop-color="#4E494B" stop-opacity="0"/>
</radialGradient>
<radialGradient id="paint25_radial_45_552" cx="0" cy="0" r="1" gradientUnits="userSpaceOnUse" gradientTransform="translate(45.5503 26.7661) rotate(-43.6141) scale(15.0896 27.6253)">
<stop offset="0.857" stop-color="#545051" stop-opacity="0"/>
<stop offset="1" stop-color="#545051"/>
</radialGradient>
<radialGradient id="paint26_radial_45_552" cx="0" cy="0" r="1" gradientUnits="userSpaceOnUse" gradientTransform="translate(41.9344 20.7439) rotate(6.6667) scale(13.3377 5.58425)">
<stop stop-color="#200E25"/>
<stop offset="1" stop-color="#200E25" stop-opacity="0"/>
</radialGradient>
<radialGradient id="paint27_radial_45_552" cx="0" cy="0" r="1" gradientUnits="userSpaceOnUse" gradientTransform="translate(43.7063 36.8045) rotate(90) scale(3.30888 5.26315)">
<stop offset="0.802" stop-color="#7D574A"/>
<stop offset="1" stop-color="#664842"/>
</radialGradient>
<radialGradient id="paint28_radial_45_552" cx="0" cy="0" r="1" gradientUnits="userSpaceOnUse" gradientTransform="translate(42.7768 37.1467) rotate(-127.812) scale(1.5428 2.12408)">
<stop offset="0.766" stop-color="#FFE6E2" stop-opacity="0"/>
<stop offset="0.966" stop-color="#FFE6E2"/>
</radialGradient>
<linearGradient id="paint29_linear_45_552" x1="46.8803" y1="37.0234" x2="45.6006" y2="37.813" gradientUnits="userSpaceOnUse">
<stop stop-color="#B4948D"/>
<stop offset="1" stop-color="#B4948D" stop-opacity="0"/>
</linearGradient>
<radialGradient id="paint30_radial_45_552" cx="0" cy="0" r="1" gradientUnits="userSpaceOnUse" gradientTransform="translate(25.9087 36.8045) rotate(90) scale(3.30905 5.26343)">
<stop offset="0.802" stop-color="#7D574A"/>
<stop offset="1" stop-color="#664842"/>
</radialGradient>
<linearGradient id="paint31_linear_45_552" x1="28.9428" y1="37.0234" x2="27.6631" y2="37.8131" gradientUnits="userSpaceOnUse">
<stop stop-color="#B4948D"/>
<stop offset="1" stop-color="#B4948D" stop-opacity="0"/>
</linearGradient>
<radialGradient id="paint32_radial_45_552" cx="0" cy="0" r="1" gradientUnits="userSpaceOnUse" gradientTransform="translate(25.3493 37.5788) rotate(-118.811) scale(2.01532 2.4225)">
<stop offset="0.766" stop-color="#FFE6E2" stop-opacity="0"/>
<stop offset="0.966" stop-color="#FFE6E2"/>
</radialGradient>
<linearGradient id="paint33_linear_45_552" x1="61.0575" y1="37.1326" x2="56.1356" y2="46.0095" gradientUnits="userSpaceOnUse">
<stop stop-color="#FFD6BD"/>
<stop offset="1" stop-color="#F0B8A6"/>
</linearGradient>
<radialGradient id="paint34_radial_45_552" cx="0" cy="0" r="1" gradientUnits="userSpaceOnUse" gradientTransform="translate(53.641 36.8612) rotate(74.347) scale(9.50132 9.065)">
<stop offset="0.856" stop-color="#CE978E" stop-opacity="0"/>
<stop offset="1" stop-color="#CE978E"/>
</radialGradient>
<radialGradient id="paint35_radial_45_552" cx="0" cy="0" r="1" gradientUnits="userSpaceOnUse" gradientTransform="translate(55.1119 39.0817) rotate(-53.9199) scale(5.45561 4.57288)">
<stop offset="0.664" stop-color="#F7B99C"/>
<stop offset="1" stop-color="#F7B99C" stop-opacity="0"/>
</radialGradient>
<radialGradient id="paint36_radial_45_552" cx="0" cy="0" r="1" gradientUnits="userSpaceOnUse" gradientTransform="translate(55.5756 39.7861) rotate(-69.2631) scale(6.76125 9.03397)">
<stop offset="0.803" stop-color="#EBBB9D" stop-opacity="0"/>
<stop offset="1" stop-color="#EBBB9D"/>
</radialGradient>
<linearGradient id="paint37_linear_45_552" x1="10.9506" y1="40.0049" x2="16.8984" y2="39.4843" gradientUnits="userSpaceOnUse">
<stop stop-color="#D19787"/>
<stop offset="1" stop-color="#C9887D"/>
</linearGradient>
<radialGradient id="paint38_radial_45_552" cx="0" cy="0" r="1" gradientUnits="userSpaceOnUse" gradientTransform="translate(14.7598 39.4858) rotate(-173.034) scale(6.62806 7.11493)">
<stop offset="0.775" stop-color="#E8AF99" stop-opacity="0"/>
<stop offset="1" stop-color="#E8AF99"/>
</radialGradient>
<radialGradient id="paint39_radial_45_552" cx="0" cy="0" r="1" gradientUnits="userSpaceOnUse" gradientTransform="translate(14.7656 39.4844) rotate(170.26) scale(3.79245 4.65352)">
<stop stop-color="#C18472"/>
<stop offset="1" stop-color="#CA8B7A"/>
</radialGradient>
<linearGradient id="paint40_linear_45_552" x1="57.155" y1="35.6211" x2="57.155" y2="43.3823" gradientUnits="userSpaceOnUse">
<stop stop-color="#F9BB9E"/>
<stop offset="1" stop-color="#F6BBA0"/>
</linearGradient>
</defs>
</svg>
