<svg width="40" height="40" viewBox="0 0 40 40" fill="none" xmlns="http://www.w3.org/2000/svg">
<path d="M39.891 28.5156C39.9439 28.5996 39.9785 28.6925 39.9927 28.7889C40.0069 28.8853 40.0004 28.9833 39.9737 29.0774C39.9469 29.1715 39.9004 29.2597 39.8369 29.3372C39.7733 29.4146 39.6939 29.4797 39.6031 29.5287L20.4031 39.8991C20.2808 39.9652 20.1417 40 20 40C19.8583 40 19.7192 39.9652 19.5969 39.8991L0.396885 29.5287C0.213617 29.4297 0.0803261 29.2674 0.0263359 29.0774C-0.0276543 28.8874 0.0020784 28.6853 0.108993 28.5156C0.215909 28.3459 0.391248 28.2225 0.596439 28.1725C0.80163 28.1225 1.01986 28.1501 1.20313 28.2491L20 38.4017L38.7969 28.2491C38.9801 28.1501 39.1984 28.1226 39.4035 28.1726C39.6087 28.2226 39.784 28.346 39.891 28.5156ZM38.7969 19.3602L20 29.5128L1.20313 19.3602C1.01986 19.2612 0.80163 19.2336 0.596439 19.2836C0.391248 19.3336 0.215909 19.457 0.108993 19.6267C0.0020784 19.7964 -0.0276543 19.9985 0.0263359 20.1885C0.0803261 20.3785 0.213617 20.5408 0.396885 20.6398L19.5969 31.0102C19.7192 31.0763 19.8583 31.1111 20 31.1111C20.1417 31.1111 20.2808 31.0763 20.4031 31.0102L39.6031 20.6398C39.7864 20.5408 39.9197 20.3785 39.9737 20.1885C40.0277 19.9985 39.9979 19.7964 39.891 19.6267C39.7841 19.457 39.6087 19.3336 39.4036 19.2836C39.1984 19.2336 38.9801 19.2612 38.7969 19.3602ZM9.54042e-06 11.1111C1.38354e-05 10.9817 0.036659 10.8545 0.106293 10.7422C0.175928 10.6299 0.27612 10.5365 0.396885 10.4713L19.5969 0.100911C19.7192 0.0348234 19.8583 0 20 0C20.1417 0 20.2808 0.0348234 20.4031 0.100911L39.6031 10.4713C39.7239 10.5365 39.8241 10.6299 39.8937 10.7422C39.9633 10.8544 40 10.9816 40 11.1111C40 11.2406 39.9633 11.3678 39.8937 11.48C39.8241 11.5923 39.7239 11.6857 39.6031 11.7509L20.4031 22.1213C20.2808 22.1874 20.1417 22.2222 20 22.2222C19.8583 22.2222 19.7192 22.1874 19.5969 22.1213L0.396885 11.7509C0.27612 11.6857 0.175928 11.5923 0.106293 11.48C0.036659 11.3678 1.38354e-05 11.2406 9.54042e-06 11.1111ZM2.3877 11.1111L20 20.6239L37.6123 11.1111L20 1.59831L2.3877 11.1111Z" fill="#101352"/>
</svg>
