<svg width="43" height="43" viewBox="0 0 43 43" fill="none" xmlns="http://www.w3.org/2000/svg">
<path fill-rule="evenodd" clip-rule="evenodd" d="M7.48628 8.22493C6.70262 9.80321 6.97771 11.6491 7.5279 15.3411L7.93211 18.0533C8.63886 22.7958 8.99224 25.167 10.6961 26.5835C12.3999 28 14.8987 28 19.8962 28H23.1038C28.1013 28 30.6 28 32.3039 26.5835C34.0077 25.167 34.3611 22.7958 35.0679 18.0533L35.4721 15.3411C36.0223 11.6491 36.2974 9.80321 35.5137 8.22493C34.7301 6.64664 33.062 5.68728 29.726 3.76853L27.7179 2.61362C24.6885 0.871206 23.1737 0 21.5 0C19.8263 0 18.3115 0.871206 15.282 2.61362L13.274 3.76853C9.93797 5.68728 8.26995 6.64664 7.48628 8.22493ZM16.0626 22.3997C16.0626 21.8198 16.5495 21.3497 17.1501 21.3497H25.8501C26.4507 21.3497 26.9376 21.8198 26.9376 22.3997C26.9376 22.9796 26.4507 23.4497 25.8501 23.4497H17.1501C16.5495 23.4497 16.0626 22.9796 16.0626 22.3997Z" fill="#1C274C"/>
</svg>
