<svg width="29" height="28" viewBox="0 0 29 28" fill="none" xmlns="http://www.w3.org/2000/svg">
<path fill-rule="evenodd" clip-rule="evenodd" d="M0.486282 8.22493C-0.297385 9.80321 -0.022291 11.6491 0.527897 15.3411L0.932113 18.0533C1.63886 22.7958 1.99224 25.167 3.69609 26.5835C5.39993 28 7.89868 28 12.8962 28H16.1038C21.1013 28 23.6 28 25.3039 26.5835C27.0077 25.167 27.3611 22.7958 28.0679 18.0533L28.4721 15.3411C29.0223 11.6491 29.2974 9.80321 28.5137 8.22493C27.7301 6.64664 26.062 5.68728 22.726 3.76853L20.7179 2.61362C17.6885 0.871206 16.1737 0 14.5 0C12.8263 0 11.3115 0.871206 8.28203 2.61362L6.27402 3.76853C2.93797 5.68728 1.26995 6.64664 0.486282 8.22493ZM9.06264 22.3997C9.06264 21.8198 9.54954 21.3497 10.1501 21.3497H18.8501C19.4507 21.3497 19.9376 21.8198 19.9376 22.3997C19.9376 22.9796 19.4507 23.4497 18.8501 23.4497H10.1501C9.54954 23.4497 9.06264 22.9796 9.06264 22.3997Z" fill="#1C274C"/>
</svg>
