<svg width="24" height="25" viewBox="0 0 24 25" fill="none" xmlns="http://www.w3.org/2000/svg">
<path d="M21.3619 5.28602H18.8699V2.21516C18.8699 1.33014 18.2318 0.612793 17.4464 0.612793H6.05302C5.26642 0.612793 4.62885 1.33014 4.62885 2.21516V5.28602H2.13686C0.956056 5.28602 0 6.36238 0 7.68957V21.7092C0 23.0364 0.956056 24.1128 2.13686 24.1128H21.3631C22.5427 24.1128 23.5 23.0371 23.5 21.7092V7.68957C23.4982 6.3617 22.5415 5.28602 21.3619 5.28602ZM7.47599 3.81685H16.0204V5.28534H7.47599V3.81685ZM14.8444 16.9731H13.2658V18.7513C13.2658 19.6938 12.5862 20.4578 11.7479 20.4578C10.9102 20.4578 10.2324 19.6924 10.2324 18.7513V16.9731H8.65258C7.8137 16.9731 7.13587 16.2098 7.13587 15.2673C7.13587 14.3248 7.81551 13.5615 8.65258 13.5615H10.2324V11.784C10.2324 10.8416 10.9114 10.0776 11.7479 10.0776C12.5862 10.0776 13.2658 10.8409 13.2658 11.784V13.5602H14.8444C15.6833 13.5602 16.3617 14.3248 16.3617 15.2667C16.3623 16.2098 15.6839 16.9731 14.8444 16.9731Z" fill="#101352"/>
</svg>
