<svg width="30" height="30" viewBox="0 0 30 30" fill="none" xmlns="http://www.w3.org/2000/svg">
<path d="M26.4922 3.5078C27.8358 4.85155 27.8358 7.03019 26.4922 8.37393L25.8727 8.99337C25.6923 8.95432 25.4652 8.89487 25.2063 8.80505C24.5135 8.56465 23.6028 8.11034 22.7462 7.25375C21.8896 6.39718 21.4353 5.48654 21.195 4.79363C21.1051 4.53477 21.0457 4.30762 21.0066 4.12724L21.6261 3.5078C22.9698 2.16407 25.1485 2.16407 26.4922 3.5078Z" fill="#1C274C"/>
<path d="M18.2251 16.641C17.7201 17.146 17.4676 17.3985 17.1891 17.6158C16.8608 17.8719 16.5054 18.0915 16.1294 18.2708C15.8106 18.4226 15.4719 18.5355 14.7943 18.7614L11.2214 19.9524C10.8879 20.0635 10.5203 19.9768 10.2718 19.7283C10.0233 19.4796 9.9365 19.1121 10.0476 18.7786L11.2386 15.2058C11.4645 14.5281 11.5774 14.1894 11.7293 13.8706C11.9085 13.4946 12.1281 13.1393 12.3843 12.8109C12.6015 12.5324 12.854 12.2799 13.359 11.7749L19.5041 5.62982C19.8338 6.49756 20.4116 7.5708 21.4204 8.57958C22.4293 9.58837 23.5025 10.1662 24.3703 10.4959L18.2251 16.641Z" fill="#1C274C"/>
<path d="M25.6694 25.6694C27.5 23.8389 27.5 20.8925 27.5 15C27.5 13.0646 27.5 11.4472 27.4351 10.0826L19.4825 18.0354C19.0434 18.4746 18.7135 18.8046 18.3423 19.0941C17.9065 19.4341 17.435 19.7255 16.936 19.9633C16.511 20.1659 16.0682 20.3133 15.4791 20.5095L11.8143 21.7311C10.8071 22.0669 9.69667 21.8048 8.94597 21.054C8.19526 20.3034 7.93314 19.1929 8.26886 18.1858L9.49044 14.5209C9.6867 13.9318 9.83415 13.489 10.0367 13.064C10.2745 12.565 10.5659 12.0935 10.9058 11.6577C11.1954 11.2865 11.5254 10.9566 11.9647 10.5175L19.9174 2.56485C18.5529 2.5 16.9354 2.5 15 2.5C9.10744 2.5 6.16116 2.5 4.33059 4.33059C2.5 6.16116 2.5 9.10744 2.5 15C2.5 20.8925 2.5 23.8389 4.33059 25.6694C6.16116 27.5 9.10744 27.5 15 27.5C20.8925 27.5 23.8389 27.5 25.6694 25.6694Z" fill="#1C274C"/>
</svg>
