<svg width="30" height="30" viewBox="0 0 30 30" fill="none" xmlns="http://www.w3.org/2000/svg">
<path d="M25.7813 19.8151L15 26.1022L4.21875 19.8151C4.00529 19.7088 3.75935 19.6879 3.53099 19.7565C3.30262 19.8252 3.10901 19.9783 2.98954 20.1846C2.87008 20.391 2.83374 20.6352 2.88794 20.8674C2.94213 21.0996 3.08278 21.3024 3.28125 21.4346L14.5313 27.9971C14.6746 28.0807 14.8376 28.1248 15.0035 28.1248C15.1695 28.1248 15.3324 28.0807 15.4758 27.9971L26.7258 21.4346C26.8338 21.3735 26.9287 21.2915 27.0048 21.1934C27.0809 21.0953 27.1368 20.9831 27.1692 20.8633C27.2016 20.7434 27.2098 20.6183 27.1935 20.4953C27.1771 20.3722 27.1365 20.2536 27.074 20.1463C27.0114 20.0391 26.9282 19.9454 26.8291 19.8705C26.7301 19.7957 26.6171 19.7413 26.4969 19.7105C26.3766 19.6797 26.2514 19.6731 26.1286 19.691C26.0057 19.709 25.8877 19.7511 25.7813 19.8151Z" fill="#101352"/>
<path d="M25.7813 14.1901L15 20.4772L4.21875 14.1901C4.00529 14.0838 3.75935 14.0629 3.53099 14.1315C3.30262 14.2002 3.10901 14.3533 2.98954 14.5596C2.87008 14.766 2.83374 15.0102 2.88794 15.2424C2.94213 15.4746 3.08278 15.6774 3.28125 15.8096L14.5313 22.3721C14.6746 22.4557 14.8376 22.4998 15.0035 22.4998C15.1695 22.4998 15.3324 22.4557 15.4758 22.3721L26.7258 15.8096C26.8338 15.7485 26.9287 15.6665 27.0048 15.5684C27.0809 15.4703 27.1368 15.3581 27.1692 15.2383C27.2016 15.1184 27.2098 14.9933 27.1935 14.8703C27.1771 14.7472 27.1365 14.6286 27.074 14.5213C27.0114 14.4141 26.9282 14.3204 26.8291 14.2455C26.7301 14.1707 26.6171 14.1163 26.4969 14.0855C26.3766 14.0547 26.2514 14.0481 26.1286 14.066C26.0057 14.084 25.8877 14.1261 25.7813 14.1901Z" fill="#101352"/>
<path d="M3.28124 10.1847L14.5312 16.7472C14.6746 16.8308 14.8376 16.8748 15.0035 16.8748C15.1694 16.8748 15.3324 16.8308 15.4758 16.7472L26.7258 10.1847C26.8673 10.1021 26.9847 9.98389 27.0663 9.84181C27.1479 9.69974 27.1908 9.53875 27.1908 9.37491C27.1908 9.21106 27.1479 9.05008 27.0663 8.908C26.9847 8.76592 26.8673 8.64771 26.7258 8.56514L15.4758 2.00264C15.3324 1.91905 15.1694 1.875 15.0035 1.875C14.8376 1.875 14.6746 1.91905 14.5312 2.00264L3.28124 8.56514C3.13972 8.64771 3.0223 8.76592 2.9407 8.908C2.8591 9.05008 2.81616 9.21106 2.81616 9.37491C2.81616 9.53875 2.8591 9.69974 2.9407 9.84181C3.0223 9.98389 3.13972 10.1021 3.28124 10.1847Z" fill="#101352"/>
</svg>
