<svg width="35" height="35" viewBox="0 0 35 35" fill="none" xmlns="http://www.w3.org/2000/svg">
<path d="M30.9076 4.0924C32.4751 5.6601 32.4751 8.20185 30.9076 9.76954L30.1848 10.4922C29.9744 10.4467 29.7094 10.3773 29.4074 10.2725C28.599 9.99205 27.5366 9.46202 26.5373 8.46267C25.5379 7.46333 25.0079 6.40092 24.7275 5.59253C24.6226 5.29052 24.5533 5.02551 24.5077 4.81507L25.2304 4.0924C26.7981 2.5247 29.3399 2.5247 30.9076 4.0924Z" fill="#1C274C"/>
<path d="M21.2626 19.4145C20.6734 20.0037 20.3789 20.2983 20.0539 20.5517C19.6708 20.8505 19.2562 21.1067 18.8176 21.3159C18.4457 21.4931 18.0505 21.6248 17.2599 21.8883L13.0916 23.2778C12.7026 23.4074 12.2737 23.3062 11.9837 23.0163C11.6938 22.7262 11.5925 22.2975 11.7222 21.9084L13.1117 17.74C13.3752 16.9495 13.5069 16.5543 13.6841 16.1824C13.8932 15.7437 14.1494 15.3291 14.4483 14.946C14.7017 14.6211 14.9963 14.3266 15.5855 13.7374L22.7548 6.56812C23.1393 7.58048 23.8135 8.83259 24.9904 10.0095C26.1674 11.1864 27.4195 11.8606 28.4319 12.2452L21.2626 19.4145Z" fill="#1C274C"/>
<path d="M29.9476 29.9476C32.0833 27.812 32.0833 24.3745 32.0833 17.5C32.0833 15.242 32.0833 13.355 32.0076 11.763L22.7295 21.0412C22.2172 21.5537 21.8324 21.9387 21.3993 22.2764C20.8909 22.6731 20.3408 23.013 19.7586 23.2904C19.2628 23.5268 18.7463 23.6987 18.0589 23.9277L13.7833 25.3529C12.6082 25.7446 11.3127 25.4388 10.4369 24.563C9.5611 23.6872 9.25529 22.3916 9.64697 21.2167L11.0721 16.941C11.3011 16.2537 11.4731 15.7371 11.7094 15.2413C11.9868 14.6591 12.3268 14.109 12.7234 13.6006C13.0612 13.1675 13.4463 12.7827 13.9587 12.2704L23.2369 2.99228C21.645 2.91663 19.7579 2.91663 17.5 2.91663C10.6253 2.91663 7.18798 2.91663 5.05231 5.05231C2.91663 7.18798 2.91663 10.6253 2.91663 17.5C2.91663 24.3745 2.91663 27.812 5.05231 29.9476C7.18798 32.0833 10.6253 32.0833 17.5 32.0833C24.3745 32.0833 27.812 32.0833 29.9476 29.9476Z" fill="#1C274C"/>
</svg>
