<svg width="47" height="47" viewBox="0 0 47 47" fill="none" xmlns="http://www.w3.org/2000/svg">
<path d="M21.3619 7.28602H18.8699V4.21516C18.8699 3.33014 18.2318 2.61279 17.4464 2.61279H6.05302C5.26642 2.61279 4.62885 3.33014 4.62885 4.21516V7.28602H2.13686C0.956056 7.28602 0 8.36238 0 9.68957V23.7092C0 25.0364 0.956056 26.1128 2.13686 26.1128H21.3631C22.5427 26.1128 23.5 25.0371 23.5 23.7092V9.68957C23.4982 8.3617 22.5415 7.28602 21.3619 7.28602ZM7.47599 5.81685H16.0204V7.28534H7.47599V5.81685ZM14.8444 18.9731H13.2658V20.7513C13.2658 21.6938 12.5862 22.4578 11.7479 22.4578C10.9102 22.4578 10.2324 21.6924 10.2324 20.7513V18.9731H8.65258C7.8137 18.9731 7.13587 18.2098 7.13587 17.2673C7.13587 16.3248 7.81551 15.5615 8.65258 15.5615H10.2324V13.784C10.2324 12.8416 10.9114 12.0776 11.7479 12.0776C12.5862 12.0776 13.2658 12.8409 13.2658 13.784V15.5602H14.8444C15.6833 15.5602 16.3617 16.3248 16.3617 17.2667C16.3623 18.2098 15.6839 18.9731 14.8444 18.9731Z" fill="#101352"/>
</svg>
