<svg width="95" height="95" viewBox="0 0 95 95" fill="none" xmlns="http://www.w3.org/2000/svg">
<path d="M35.625 47.5H59.375C60.4965 47.5 61.4373 47.12 62.1973 46.36C62.9573 45.6 63.336 44.6605 63.3333 43.5416C63.3333 42.4201 62.9533 41.4793 62.1933 40.7193C61.4333 39.9593 60.4939 39.5807 59.375 39.5833H35.625C34.5035 39.5833 33.5627 39.9633 32.8027 40.7233C32.0427 41.4833 31.664 42.4227 31.6666 43.5416C31.6666 44.6632 32.0466 45.6039 32.8066 46.3639C33.5666 47.1239 34.5061 47.5026 35.625 47.5ZM35.625 31.6666H59.375C60.4965 31.6666 61.4373 31.2866 62.1973 30.5266C62.9573 29.7666 63.336 28.8272 63.3333 27.7083C63.3333 26.5868 62.9533 25.646 62.1933 24.886C61.4333 24.126 60.4939 23.7473 59.375 23.75H35.625C34.5035 23.75 33.5627 24.13 32.8027 24.89C32.0427 25.65 31.664 26.5894 31.6666 27.7083C31.6666 28.8298 32.0466 29.7706 32.8066 30.5306C33.5666 31.2906 34.5061 31.6693 35.625 31.6666ZM78.9687 81.0468L62.9375 60.1666C61.8159 58.6493 60.4305 57.4789 58.7812 56.6556C57.1319 55.8323 55.3507 55.4193 53.4375 55.4166H15.8333V15.8333C15.8333 13.6562 16.6091 11.7918 18.1608 10.2402C19.7125 8.68851 21.5755 7.91399 23.75 7.91663H71.25C73.4271 7.91663 75.2914 8.69247 76.8431 10.2441C78.3948 11.7958 79.1693 13.6589 79.1666 15.8333V79.1666C79.1666 79.4965 79.1495 79.8105 79.1152 80.1087C79.0809 80.4069 79.0321 80.7196 78.9687 81.0468ZM23.75 87.0833C21.5729 87.0833 19.7098 86.3075 18.1608 84.7558C16.6118 83.2041 15.836 81.3411 15.8333 79.1666V63.3333H53.4375C54.0972 63.3333 54.7081 63.4824 55.2702 63.7806C55.8323 64.0788 56.3099 64.4904 56.7031 65.0156L73.3281 86.7864C72.9982 86.9184 72.6525 87.0015 72.291 87.0358C71.9295 87.0701 71.5825 87.0859 71.25 87.0833H23.75Z" fill="#0C0A52"/>
</svg>
