<svg width="46" height="46" viewBox="0 0 46 46" fill="none" xmlns="http://www.w3.org/2000/svg">
<g clip-path="url(#clip0_89_660)">
<path d="M43.0323 8.16129C42.4892 8.16129 41.9869 8.31858 41.5484 8.57381V7.41935C41.5484 5.78265 40.2174 4.45161 38.5806 4.45161C37.9656 4.45161 37.3936 4.64006 36.9195 4.96132C36.5136 3.80464 35.423 2.96774 34.129 2.96774C32.8351 2.96774 31.7437 3.80464 31.3386 4.96132C30.8645 4.64006 30.2925 4.45161 29.6774 4.45161C28.2982 4.45161 27.1467 5.40129 26.815 6.67742H21.965C21.6104 5.30706 20.9404 4.06581 20.0323 3.03377V2.96774H19.9722C18.3414 1.15148 15.9828 0 13.3548 0H3.70968C1.66416 0 0 1.66416 0 3.70968V14.0968C0 16.1423 1.66416 17.8065 3.70968 17.8065H13.3548C15.9828 17.8065 18.3414 16.655 19.9722 14.8387H20.0323V14.7727C20.9404 13.7406 21.6104 12.4994 21.965 11.129H26.7097V24.9186L25.9677 24.1767V20.4032C25.9677 18.5625 24.4698 17.0645 22.629 17.0645C20.7883 17.0645 19.2903 18.5625 19.2903 20.4032V27.6408L23.164 34.7419C23.6744 35.6782 24.4475 36.4246 25.4009 36.9009L26.7097 37.5553V46H28.1936V36.6383L26.0642 35.5736C25.3838 35.233 24.8311 34.7003 24.4668 34.0318L20.7742 27.2624V20.4032C20.7742 19.3801 21.6059 18.5484 22.629 18.5484C23.6522 18.5484 24.4839 19.3801 24.4839 20.4032V24.791L26.4025 26.7097H28.1936V11.129H29.6774V6.67742H28.3998C28.6573 6.23597 29.1306 5.93548 29.6774 5.93548C30.495 5.93548 31.1613 6.60174 31.1613 7.41935V20.0323H32.6452V7.41935V5.93548C32.6452 5.11787 33.3107 4.45161 34.129 4.45161C34.9466 4.45161 35.6129 5.11787 35.6129 5.93548V7.41935V8.16129V20.0323H37.0968V8.16129V7.41935C37.0968 6.60174 37.7623 5.93548 38.5806 5.93548C39.3983 5.93548 40.0645 6.60174 40.0645 7.41935V11.129V11.871V20.0323H41.5484V11.871V11.129C41.5484 10.3114 42.2139 9.64516 43.0323 9.64516C43.8499 9.64516 44.5161 10.3114 44.5161 11.129V33.3871C44.5161 34.8012 43.7304 36.0729 42.4654 36.705L41.5484 37.1635V46H43.0323V38.0806L43.1295 38.0324C44.9005 37.1472 46 35.3673 46 33.3871V11.129C46 9.49232 44.669 8.16129 43.0323 8.16129ZM13.3548 16.3226H3.70968C2.48252 16.3226 1.48387 15.3239 1.48387 14.0968V3.70968C1.48387 2.48252 2.48252 1.48387 3.70968 1.48387H13.3548C15.0175 1.48387 16.5489 2.04032 17.7872 2.96774H17.0645C15.8374 2.96774 14.8387 3.96639 14.8387 5.19355V12.6129C14.8387 13.8401 15.8374 14.8387 17.0645 14.8387H17.7872C16.5489 15.7661 15.0175 16.3226 13.3548 16.3226ZM19.2762 13.3548H17.0645C16.655 13.3548 16.3226 13.0225 16.3226 12.6129V5.19355C16.3226 4.784 16.655 4.45161 17.0645 4.45161H19.2762C20.2118 5.69361 20.7742 7.23239 20.7742 8.90323C20.7742 10.5741 20.2118 12.1128 19.2762 13.3548ZM28.1936 9.64516H22.2202C22.241 9.39958 22.2581 9.15326 22.2581 8.90323C22.2581 8.65319 22.241 8.40687 22.2202 8.16129H28.1936V9.64516Z" fill="#23467B"/>
<path d="M30.9439 24.7012L29.8948 25.7503L31.7385 27.594C33.2795 29.1365 34.129 31.1849 34.129 33.3655V36.3548H35.6129V33.3655C35.6129 30.7888 34.609 28.3671 32.7876 26.5456L30.9439 24.7012Z" fill="#23467B"/>
<path d="M2.96777 14.8387H13.3549V2.96777H2.96777V14.8387ZM4.45164 4.45164H11.871V13.3549H4.45164V4.45164Z" fill="#23467B"/>
<path d="M7.41942 10.3872H5.93555V11.8711H7.41942V10.3872Z" fill="#23467B"/>
<path d="M10.3872 10.3872H8.90332V11.8711H10.3872V10.3872Z" fill="#23467B"/>
</g>
<defs>
<clipPath id="clip0_89_660">
<rect width="46" height="46" fill="white"/>
</clipPath>
</defs>
</svg>
