<svg width="29" height="28" viewBox="0 0 29 28" fill="none" xmlns="http://www.w3.org/2000/svg">
<path d="M1.82978 8.89202L0.489614 8.22658L1.82978 8.89202C2.07387 8.40043 2.4794 7.9374 3.30456 7.33802C4.15689 6.7189 5.32592 6.04424 7.02187 5.06881L9.02989 3.91389L8.28203 2.61362L9.02989 3.91389C10.5699 3.02813 11.6322 2.41912 12.5157 2.02095C13.3686 1.63661 13.9487 1.5 14.5 1.5C15.0513 1.5 15.6315 1.63661 16.4843 2.02095C17.3678 2.41911 18.43 3.02813 19.97 3.91388L19.9701 3.91391L21.9781 5.0688C21.9781 5.06881 21.9781 5.06882 21.9782 5.06882C23.6741 6.04425 24.8431 6.7189 25.6954 7.33802C26.5206 7.9374 26.9261 8.40042 27.1701 8.89196L27.1702 8.89206C27.4121 9.37933 27.5285 9.96094 27.494 10.9374C27.4581 11.9534 27.2686 13.2404 26.9884 15.1199L26.9884 15.12L26.5843 17.8321C26.5843 17.8322 26.5843 17.8322 26.5843 17.8322C26.2249 20.2435 25.9739 21.9071 25.6176 23.1532C25.2744 24.3532 24.8806 24.9847 24.345 25.43C23.8021 25.8813 23.0731 26.1747 21.7587 26.3338C20.4074 26.4974 18.6401 26.5 16.1038 26.5H12.8962C10.3599 26.5 8.59261 26.4974 7.24131 26.3338C5.92693 26.1747 5.19787 25.8813 4.65503 25.43L3.69609 26.5835L4.65502 25.43C4.11935 24.9847 3.72552 24.3532 3.38238 23.1532C3.02604 21.9071 2.77507 20.2435 2.41573 17.8322L2.41573 17.8322L2.01151 15.12C2.01151 15.12 2.01151 15.12 2.01151 15.1199C1.73141 13.2404 1.54186 11.9534 1.50596 10.9374C1.47145 9.96091 1.58784 9.37929 1.82978 8.89202ZM10.1501 19.8497C8.77115 19.8497 7.56264 20.9422 7.56264 22.3997C7.56264 23.8572 8.77115 24.9497 10.1501 24.9497H18.8501C20.2291 24.9497 21.4376 23.8572 21.4376 22.3997C21.4376 20.9422 20.2291 19.8497 18.8501 19.8497H10.1501Z" stroke="#101352" stroke-width="3"/>
</svg>
