<svg width="30" height="30" viewBox="0 0 30 30" fill="none" xmlns="http://www.w3.org/2000/svg">
<g clip-path="url(#clip0_27_123)">
<path d="M2.5 15C2.5 20.8925 2.5 23.8389 4.33059 25.6694C6.16116 27.5 9.10744 27.5 15 27.5C20.8925 27.5 23.8389 27.5 25.6694 25.6694C27.5 23.8389 27.5 20.8925 27.5 15V13.125M16.875 2.5H15C9.10744 2.5 6.16116 2.5 4.33059 4.33059C3.11341 5.54776 2.70555 7.25819 2.56887 10" stroke="#1C274C" stroke-width="3.75" stroke-linecap="round"/>
<path d="M20.815 4.31883L21.6261 3.5078C22.9699 2.16407 25.1485 2.16407 26.4923 3.5078C27.8359 4.85155 27.8359 7.03019 26.4923 8.37393L25.6811 9.18494M20.815 4.31883C20.815 4.31883 20.9164 6.04224 22.4371 7.5629C23.9578 9.08357 25.6811 9.18494 25.6811 9.18494M20.815 4.31883L13.359 11.7749C12.854 12.2799 12.6015 12.5324 12.3843 12.8109C12.1281 13.1393 11.9085 13.4946 11.7293 13.8706C11.5774 14.1894 11.4645 14.5281 11.2386 15.2058L10.5155 17.375M25.6811 9.18494L21.9531 12.913M10.5155 17.375L10.0476 18.7786C9.9365 19.1121 10.0233 19.4796 10.2718 19.7283C10.5203 19.9768 10.8879 20.0635 11.2214 19.9524L12.625 19.4845M10.5155 17.375L12.625 19.4845M18.2251 16.641C17.7201 17.146 17.4676 17.3985 17.1891 17.6158C16.8608 17.8719 16.5054 18.0915 16.1294 18.2708C15.8106 18.4226 15.4719 18.5355 14.7943 18.7614L12.625 19.4845" stroke="#1C274C" stroke-width="3.75" stroke-linecap="round"/>
</g>
<defs>
<clipPath id="clip0_27_123">
<rect width="30" height="30" fill="white"/>
</clipPath>
</defs>
</svg>
