<svg width="24" height="26" viewBox="0 0 24 26" fill="none" xmlns="http://www.w3.org/2000/svg">
<path d="M23.3736 18.045C23.4047 18.0982 23.4249 18.157 23.4332 18.218C23.4415 18.279 23.4377 18.341 23.4221 18.4005C23.4064 18.4601 23.3792 18.5159 23.3419 18.5649C23.3047 18.6139 23.2581 18.6551 23.205 18.6861L11.955 25.2486C11.8833 25.2905 11.8018 25.3125 11.7188 25.3125C11.6358 25.3125 11.5542 25.2905 11.4826 25.2486L0.23255 18.6861C0.125166 18.6235 0.0470661 18.5208 0.0154312 18.4005C-0.0162037 18.2803 0.00121781 18.1524 0.0638634 18.045C0.126509 17.9377 0.229247 17.8596 0.349476 17.8279C0.469705 17.7963 0.597577 17.8137 0.704961 17.8764L11.7188 24.3011L22.7326 17.8764C22.8399 17.8137 22.9678 17.7963 23.088 17.828C23.2082 17.8596 23.311 17.9377 23.3736 18.045ZM22.7326 12.2514L11.7188 18.6761L0.704961 12.2514C0.597577 12.1887 0.469705 12.1713 0.349476 12.2029C0.229247 12.2346 0.126509 12.3127 0.0638634 12.42C0.00121781 12.5274 -0.0162037 12.6553 0.0154312 12.7755C0.0470661 12.8958 0.125166 12.9985 0.23255 13.0611L11.4826 19.6236C11.5542 19.6655 11.6358 19.6875 11.7188 19.6875C11.8018 19.6875 11.8833 19.6655 11.955 19.6236L23.205 13.0611C23.3123 12.9985 23.3904 12.8958 23.4221 12.7755C23.4537 12.6553 23.4363 12.5274 23.3736 12.42C23.311 12.3127 23.2083 12.2346 23.088 12.2029C22.9678 12.1713 22.8399 12.1887 22.7326 12.2514ZM5.59009e-06 7.03125C8.10669e-06 6.94933 0.0214799 6.86883 0.0622813 6.79779C0.103083 6.72675 0.161789 6.66764 0.23255 6.62636L11.4826 0.0638578C11.5542 0.0220367 11.6358 0 11.7188 0C11.8018 0 11.8833 0.0220367 11.955 0.0638578L23.205 6.62636C23.2757 6.66764 23.3344 6.72675 23.3752 6.79779C23.416 6.86883 23.4375 6.94933 23.4375 7.03125C23.4375 7.11317 23.416 7.19367 23.3752 7.26471C23.3344 7.33575 23.2757 7.39486 23.205 7.43614L11.955 13.9986C11.8833 14.0405 11.8018 14.0625 11.7188 14.0625C11.6358 14.0625 11.5542 14.0405 11.4826 13.9986L0.23255 7.43614C0.161789 7.39486 0.103083 7.33575 0.0622813 7.26471C0.0214799 7.19367 8.10669e-06 7.11317 5.59009e-06 7.03125ZM1.39905 7.03125L11.7188 13.0511L22.0385 7.03125L11.7188 1.01143L1.39905 7.03125Z" fill="#101352"/>
</svg>
