<svg width="51" height="50" viewBox="0 0 51 50" fill="none" xmlns="http://www.w3.org/2000/svg">
<path opacity="0.5" d="M4.25 25.0001C4.25 13.4941 13.7639 4.16675 25.5 4.16675C37.2359 4.16675 46.75 13.4941 46.75 25.0001C46.75 36.5059 37.2359 45.8334 25.5 45.8334C13.7639 45.8334 4.25 36.5059 4.25 25.0001Z" stroke="#1C274C" stroke-width="3.75"/>
<path d="M12.75 31.25C12.75 27.7981 15.6042 25 19.125 25C22.6459 25 25.5 27.7981 25.5 31.25C25.5 34.7019 22.6459 37.5 19.125 37.5C15.6042 37.5 12.75 34.7019 12.75 31.25Z" stroke="#1C274C" stroke-width="3.75"/>
<path opacity="0.5" d="M9.5625 23.9583L10.4424 21.875" stroke="#1C274C" stroke-width="3.75" stroke-linecap="round"/>
<path d="M30.7378 14.94C30.7378 14.94 33.379 14.5829 35.2458 16.4131C37.1126 18.2433 36.7484 20.8325 36.7484 20.8325" stroke="#1C274C" stroke-width="3.75" stroke-linecap="round"/>
<path d="M19.1248 19.3601C19.1248 19.3601 16.4838 19.7171 14.617 17.8869C12.7502 16.0567 13.1144 13.4675 13.1144 13.4675" stroke="#1C274C" stroke-width="3.75" stroke-linecap="round"/>
<path d="M40.3751 27.3672C40.3751 27.3672 37.9059 28.3526 37.2225 30.8528C36.5393 33.3528 38.1751 35.4166 38.1751 35.4166" stroke="#1C274C" stroke-width="3.75" stroke-linecap="round"/>
<path d="M28.5195 37.0249L31.8741 39.5832" stroke="#1C274C" stroke-width="3.75" stroke-linecap="round"/>
<path opacity="0.5" d="M30.8125 29.1667V25" stroke="#1C274C" stroke-width="3.75" stroke-linecap="round"/>
<path opacity="0.5" d="M25.5 10.4167H21.25" stroke="#1C274C" stroke-width="3.75" stroke-linecap="round"/>
<path d="M26.5625 19.7916L24.4375 17.7083" stroke="#1C274C" stroke-width="3.75" stroke-linecap="round"/>
</svg>
