<svg width="79" height="82" viewBox="0 0 79 82" fill="none" xmlns="http://www.w3.org/2000/svg">
<path fill-rule="evenodd" clip-rule="evenodd" d="M57.5753 8.27875C57.6409 8.3575 57.7022 8.44281 57.7569 8.52813L57.7591 8.5325L57.7656 8.54344L57.7853 8.57625L57.8553 8.69219C58.2563 9.36015 58.6435 10.0362 59.0169 10.72C59.7606 12.0806 60.7472 14.0013 61.7359 16.2719C63.6938 20.7563 65.75 26.8091 65.75 32.5753C65.75 39.1006 61.3422 42.7188 57.4659 44.5869C55.5331 45.5044 53.4931 46.1768 51.3934 46.5884C48.1606 49.5891 43.9108 51.2532 39.5 51.2456C36.8695 51.2485 34.2724 50.6573 31.9024 49.516C29.5324 48.3748 27.4507 46.713 25.8128 44.6547L25.7122 44.6459C25.2366 44.6026 24.763 44.5399 24.2925 44.4578C22.8043 44.2061 21.3555 43.7604 19.9831 43.1322C18.3863 42.3884 16.6887 41.2466 15.3894 39.4944C14.0703 37.7159 13.25 35.4278 13.25 32.5731C13.25 27.1766 15.8794 21.045 18.2944 16.4906C19.7476 13.7602 21.3589 11.1168 23.12 8.57406L23.19 8.47563L23.2162 8.43406C23.4921 8.01602 23.7938 7.61565 24.1197 7.23531C24.973 6.25043 25.9426 5.37267 27.0072 4.62125C29.6628 2.73344 33.7534 0.9375 39.6203 0.9375C45.4719 0.9375 49.9278 2.72469 52.9291 4.53156C54.4275 5.435 55.5628 6.34063 56.335 7.03406C56.7566 7.41401 57.1582 7.81559 57.5381 8.23719L57.56 8.26344L57.5709 8.27437L57.5753 8.27875ZM26.8934 10.8075C26.8608 10.863 26.8258 10.917 26.7884 10.9694L26.7841 10.9738L26.7666 10.9956L26.6944 11.1006C26.2365 11.7565 25.7909 12.4209 25.3578 13.0934C24.4828 14.4497 23.3191 16.3528 22.1597 18.5403C19.7841 23.0203 17.625 28.3316 17.625 32.5753C17.625 34.5419 18.1719 35.9047 18.9025 36.8913C19.655 37.9019 20.6941 38.6413 21.8316 39.1706C22.3719 39.4222 22.9188 39.6212 23.4394 39.7766C23.0238 37.8991 22.7105 36.0005 22.5009 34.0891C22.2537 31.7397 22.1816 29.1344 22.6234 26.8309C23.0587 24.5734 24.0847 22.1475 26.4341 20.8853C29.56 19.2075 34.8494 16.9631 39.5131 15.4166C41.8384 14.6444 44.1069 14.0122 45.9203 13.7234C46.8106 13.5834 47.725 13.5047 48.53 13.5856C49.16 13.6512 50.4659 13.8897 51.1878 15.0731C57.0503 23.5366 57.1378 31.2913 55.6525 36.9547C55.2238 38.5909 54.6681 40.0434 54.095 41.2772C54.5936 41.0879 55.084 40.8777 55.565 40.6472C58.7369 39.1159 61.375 36.6791 61.375 32.5753C61.375 27.7147 59.6031 22.3247 57.7262 18.0197C56.7257 15.733 55.5966 13.5048 54.3444 11.3456L54.1387 10.9978L54.0863 10.9431L54.0622 10.9169C53.8528 10.6995 53.6354 10.4901 53.4103 10.2891C52.5625 9.53515 51.6455 8.8628 50.6716 8.28094C48.2281 6.80656 44.5422 5.3125 39.6203 5.3125C34.7116 5.3125 31.5003 6.79781 29.5447 8.18906C28.7701 8.73418 28.0642 9.37099 27.4425 10.0856C27.2496 10.3098 27.07 10.545 26.9044 10.79L26.8934 10.8075ZM27.9981 40.0806C27.4748 37.9593 27.0919 35.8058 26.8519 33.6341C26.6222 31.4619 26.5937 29.3466 26.9175 27.6556C27.2522 25.9231 27.8581 25.0853 28.5013 24.7397C31.3603 23.2041 36.4113 21.0538 40.8891 19.5684C43.1334 18.8247 45.1372 18.2778 46.6028 18.0459C47.1562 17.9584 47.5631 17.9256 47.8387 17.9278C52.6469 25.0766 52.5966 31.3525 51.4175 35.8456C50.9077 37.7785 50.1326 39.6315 49.1141 41.3516C48.7396 41.9843 48.3269 42.5935 47.8781 43.1759L47.8628 43.1956L47.8169 43.2525L47.8081 43.2612L47.8059 43.2634C47.5543 43.5574 47.3852 43.913 47.3159 44.2938C45.812 45.4099 44.0865 46.1911 42.2555 46.5848C40.4246 46.9786 38.5305 46.9759 36.7007 46.5768C34.8708 46.1776 33.1477 45.3914 31.647 44.2709C30.1463 43.1504 28.9007 41.7216 27.9981 40.0806ZM48.2062 17.9562C48.1869 17.9539 48.1678 17.9495 48.1494 17.9431C48.1689 17.9446 48.1881 17.949 48.2062 17.9562Z" fill="#0C0B35"/>
<path fill-rule="evenodd" clip-rule="evenodd" d="M26.1869 53.1203C25.7231 52.1972 25.1522 51.0575 24.1875 51.2784C12.3663 53.9691 0.125 61.739 0.125 69.9969V81.875H78.875V69.9969C78.875 63.4912 71.28 57.2919 62.2784 53.6344L62.2478 53.5753L62.2369 53.5534L62.1647 53.5884C59.7738 52.6259 57.2844 51.8384 54.8125 51.2784C53.7122 51.0269 52.5747 52.5406 52.0781 53.4878H26.375C26.3111 53.3659 26.2484 53.2434 26.1869 53.1203ZM55.6941 56.01C56.65 56.2725 57.6016 56.5722 58.54 56.9003C58.5662 57.6484 58.5094 58.53 58.3869 59.4312C58.2622 60.3644 58.0632 61.286 57.7919 62.1875H54.8125C54.4064 62.1877 54.0083 62.301 53.6629 62.5146C53.3175 62.7283 53.0384 63.0339 52.8569 63.3972L50.6694 67.7722C50.5172 68.0757 50.4378 68.4105 50.4375 68.75V73.125C50.4375 73.7052 50.668 74.2616 51.0782 74.6718C51.4884 75.082 52.0448 75.3125 52.625 75.3125H57V70.9375H54.8125V69.2662L56.1644 66.5625H62.2106L63.5625 69.2662V70.9375H61.375V75.3125H65.75C66.3302 75.3125 66.8866 75.082 67.2968 74.6718C67.707 74.2616 67.9375 73.7052 67.9375 73.125V68.75C67.9372 68.4105 67.8578 68.0757 67.7056 67.7722L65.5181 63.3972C65.3366 63.0339 65.0575 62.7283 64.7121 62.5146C64.3667 62.301 63.9686 62.1877 63.5625 62.1875H62.3244C62.5945 61.0305 62.7759 59.8546 62.8669 58.67C64.9997 59.6762 66.9816 60.8312 68.6987 62.0825C72.9031 65.1537 74.5 68.0237 74.5 69.9969V77.5H4.5V69.9969C4.5 68.0216 6.09688 65.1515 10.3013 62.0847C12.4144 60.5425 14.9366 59.1469 17.6403 57.9919C17.7154 59.735 17.9951 61.4634 18.4737 63.1412L18.4912 63.2025C17.1835 64.0298 16.2102 65.2927 15.7432 66.768C15.2762 68.2434 15.3456 69.8363 15.9391 71.2654C16.5327 72.6946 17.6122 73.868 18.9869 74.5784C20.3617 75.2889 21.9433 75.4906 23.4524 75.1481C24.9615 74.8055 26.301 73.9407 27.2343 72.7063C28.1677 71.472 28.6347 69.9475 28.5531 68.4021C28.4715 66.8568 27.8463 65.39 26.7882 64.2609C25.73 63.1317 24.3068 62.4129 22.77 62.2312C22.4904 61.316 22.2856 60.3796 22.1575 59.4312C22.0357 58.5831 21.9852 57.7262 22.0066 56.8697C22.0129 56.7061 22.0238 56.5427 22.0394 56.3797C22.3019 56.2987 22.5644 56.22 22.8269 56.1456L23.7347 57.865H54.7184L55.6941 56.01ZM22 70.9703C23.1769 70.9703 24.1875 70.0078 24.1875 68.75C24.1875 67.4944 23.1769 66.5297 22 66.5297C20.8231 66.5297 19.8125 67.4922 19.8125 68.75C19.8125 70.0056 20.8231 70.9703 22 70.9703Z" fill="#0C0B35"/>
</svg>
