<svg width="35" height="48" viewBox="0 0 35 48" fill="none" xmlns="http://www.w3.org/2000/svg">
<path fill-rule="evenodd" clip-rule="evenodd" d="M23.6459 6.50008C23.6459 8.04718 22.9984 9.53091 21.8458 10.6249C20.6933 11.7188 19.1301 12.3334 17.5001 12.3334C15.8701 12.3334 14.3069 11.7188 13.1543 10.6249C12.0018 9.53091 11.3542 8.04718 11.3542 6.50008C11.3542 4.95299 12.0018 3.46925 13.1543 2.37529C14.3069 1.28133 15.8701 0.666748 17.5001 0.666748C19.1301 0.666748 20.6933 1.28133 21.8458 2.37529C22.9984 3.46925 23.6459 4.95299 23.6459 6.50008ZM21.1876 6.50008C21.1876 7.42834 20.7991 8.31858 20.1075 8.97496C19.416 9.63133 18.4781 10.0001 17.5001 10.0001C16.5221 10.0001 15.5842 9.63133 14.8926 8.97496C14.2011 8.31858 13.8126 7.42834 13.8126 6.50008C13.8126 5.57182 14.2011 4.68159 14.8926 4.02521C15.5842 3.36883 16.5221 3.00008 17.5001 3.00008C18.4781 3.00008 19.416 3.36883 20.1075 4.02521C20.7991 4.68159 21.1876 5.57182 21.1876 6.50008Z" fill="#23467B"/>
<path d="M8.896 43.8334V35.6667H11.3543V43.8334C11.3543 44.1428 11.4838 44.4396 11.7143 44.6584C11.9449 44.8772 12.2575 45.0001 12.5835 45.0001H12.6904C12.9971 44.9998 13.2925 44.8908 13.5188 44.6943C13.7451 44.4979 13.8859 44.2283 13.9135 43.9384L14.7063 35.6667H17.1744L16.3632 44.1507C16.3427 44.3598 16.3028 44.5667 16.244 44.7691C16.0284 45.5066 15.564 46.1568 14.922 46.6199C14.2799 47.0831 13.4956 47.3337 12.6892 47.3334H12.5835C11.6055 47.3334 10.6676 46.9647 9.97604 46.3083C9.2845 45.6519 8.896 44.7617 8.896 43.8334ZM21.0856 43.9384L20.2928 35.6667H17.8247L18.6371 44.1507C18.6576 44.3598 18.6975 44.5667 18.7564 44.7691C18.9719 45.5064 19.4361 46.1565 20.0779 46.6196C20.7197 47.0827 21.5037 47.3335 22.3099 47.3334H22.4168C23.3948 47.3334 24.3327 46.9647 25.0243 46.3083C25.7158 45.6519 26.1043 44.7617 26.1043 43.8334V35.6667H23.646V43.8334C23.646 44.1428 23.5165 44.4396 23.286 44.6584C23.0555 44.8772 22.7428 45.0001 22.4168 45.0001H22.3099C22.003 45.0001 21.7073 44.8912 21.4807 44.6947C21.2542 44.4983 21.1133 44.2285 21.0856 43.9384Z" fill="#23467B"/>
<path fill-rule="evenodd" clip-rule="evenodd" d="M1.52091 13.5C1.19492 13.5 0.882276 13.6229 0.651763 13.8417C0.421249 14.0605 0.291748 14.3572 0.291748 14.6667V32.1667C0.291748 32.4761 0.421249 32.7728 0.651763 32.9916C0.882276 33.2104 1.19492 33.3333 1.52091 33.3333H33.4793C33.8052 33.3333 34.1179 33.2104 34.3484 32.9916C34.5789 32.7728 34.7084 32.4761 34.7084 32.1667V14.6667C34.7084 14.3572 34.5789 14.0605 34.3484 13.8417C34.1179 13.6229 33.8052 13.5 33.4793 13.5H1.52091ZM2.75008 15.8333V31H11.9688C11.9688 30.349 12.2884 29.7832 12.6178 29.3667C12.985 28.9197 13.4205 28.5273 13.9097 28.2023C14.6258 27.7144 15.4243 27.3459 16.2709 27.1127V24.5833H15.2876C14.5464 24.5833 13.509 25.008 12.5134 25.5808C11.9642 25.8982 11.4367 26.2482 10.9339 26.6285L10.9154 26.6437L10.9117 26.646L10.1251 25.75L9.33842 24.854L9.33964 24.8517L9.34333 24.8493L9.35194 24.8423L9.38389 24.819C9.54969 24.6922 9.71812 24.5685 9.88908 24.448C10.221 24.2147 10.6917 23.8997 11.2399 23.5847C12.2724 22.992 13.8163 22.25 15.2876 22.25H16.2709V19.9167H15.6563C14.9557 19.9167 14.0461 20.15 13.2349 20.43C12.7885 20.5843 12.3501 20.7583 11.9209 20.9515L11.9061 20.9597H11.9037L11.3542 19.9167L10.8048 18.8725L10.8085 18.8713L10.8171 18.8678L10.8429 18.855C10.9833 18.79 11.1251 18.7277 11.2682 18.6683C11.5472 18.5517 11.9393 18.3942 12.3941 18.2367C13.2705 17.9333 14.512 17.5833 15.6563 17.5833H16.2709V15.8333H2.75008ZM18.7292 24.5833H20.0813C21.002 24.5833 21.9484 25.0103 22.74 25.5388C23.1749 25.8298 23.5807 26.1583 23.952 26.52L23.9618 26.5317L24.8751 25.75L25.7884 24.9683L25.7859 24.9672L25.7834 24.9637L25.7748 24.9543L25.7478 24.9275C25.6116 24.7912 25.471 24.6589 25.3262 24.5308C24.9569 24.2049 24.5647 23.9032 24.1523 23.6278C23.1936 22.9897 21.7432 22.25 20.0813 22.25H18.7292V19.9167H19.6511C20.5042 19.9167 21.3351 20.1512 21.9779 20.409C22.3174 20.5449 22.6461 20.704 22.9613 20.885L22.965 20.8873L23.6459 19.9167L24.3269 18.946L24.3256 18.9448L24.322 18.9425L24.3134 18.9367L24.2888 18.9215C24.1691 18.8494 24.0474 18.7806 23.9237 18.715C23.6021 18.5454 23.271 18.3927 22.9318 18.2577C22.1168 17.931 20.9491 17.5833 19.6511 17.5833H18.7292V15.8333H32.2501V31H23.0313C23.0313 30.3443 22.7019 29.7692 22.3725 29.3515C22.0006 28.8963 21.5604 28.4954 21.0659 28.1615C20.3618 27.6701 19.5703 27.303 18.7292 27.0777V24.5833ZM20.5644 31C20.5228 30.9115 20.4695 30.8284 20.4058 30.7527C20.1806 30.4831 19.9157 30.2458 19.6192 30.048C18.9112 29.558 18.1073 29.264 17.5394 29.25C16.8707 29.3037 16.0312 29.6292 15.3429 30.0982C14.9987 30.3315 14.7406 30.5695 14.5808 30.7713C14.5218 30.8412 14.4726 30.9181 14.4345 31H20.5644Z" fill="#23467B"/>
</svg>
